<svg width="40" height="40" viewBox="0 0 40 40" fill="none" xmlns="http://www.w3.org/2000/svg">
<g clip-path="url(#clip0_123_628)">
<path d="M34.8327 27.0962C34.1639 23.9545 32.4613 21.0435 30.0382 18.8994C29.785 18.6752 29.398 18.6989 29.174 18.9521C28.95 19.2053 28.9735 19.5923 29.2267 19.8163C31.455 21.788 33.0206 24.4639 33.6351 27.3511C33.6964 27.6388 33.9504 27.836 34.2333 27.836C34.2755 27.836 34.3185 27.8317 34.3614 27.8225C34.6921 27.7521 34.9032 27.4269 34.8327 27.0962Z" fill="#464646"/>
<path d="M28.3372 17.595C27.3781 16.9616 26.3479 16.4378 25.2748 16.0385C24.9581 15.9205 24.6054 16.0819 24.4875 16.3988C24.3695 16.7156 24.5308 17.0681 24.8477 17.1861C25.8337 17.5531 26.7807 18.0345 27.6622 18.6167C27.7662 18.6854 27.8833 18.7182 27.9991 18.7182C28.1978 18.7182 28.3928 18.6216 28.5105 18.4434C28.6969 18.1613 28.6194 17.7814 28.3372 17.595Z" fill="#464646"/>
<path d="M13.1394 26.693H10.3708C10.0327 26.693 9.75854 26.9671 9.75854 27.3053C9.75854 27.6434 10.0327 27.9175 10.3708 27.9175H13.1394C13.4775 27.9175 13.7517 27.6434 13.7517 27.3053C13.7516 26.9671 13.4775 26.693 13.1394 26.693Z" fill="#464646"/>
<path d="M38.5714 28.6522H37.1296C36.9615 26.8209 36.5053 25.0446 35.764 23.354C34.8406 21.2483 33.5239 19.374 31.8502 17.7834C31.6051 17.5505 31.2175 17.5602 30.9846 17.8054C30.7517 18.0505 30.7616 18.438 31.0066 18.6709C32.5616 20.1488 33.7849 21.8898 34.6426 23.8457C35.3155 25.3805 35.7361 26.9913 35.9007 28.6523H30.5305C30.1924 28.6523 29.9183 28.9264 29.9183 29.2645C29.9183 29.6027 30.1924 29.8768 30.5305 29.8768H38.5713C38.6838 29.8768 38.7754 29.9684 38.7754 30.0809V31.0195C38.7754 31.132 38.6838 31.2236 38.5713 31.2236H1.42859C1.31609 31.2236 1.22453 31.132 1.22453 31.0195V30.0808C1.22453 29.9683 1.31609 29.8767 1.42859 29.8767H27.5919C27.93 29.8767 28.2041 29.6026 28.2041 29.2645C28.2041 28.9263 27.93 28.6522 27.5919 28.6522H4.10094C4.12563 28.4056 4.15609 28.1607 4.19195 27.9175H8.32656C8.66469 27.9175 8.93883 27.6434 8.93883 27.3052C8.93883 26.9671 8.66469 26.693 8.32656 26.693H4.42234C6.04586 19.5911 12.413 14.276 20 14.276C23.421 14.276 26.6832 15.3412 29.4339 17.3565C29.7066 17.5562 30.0898 17.4972 30.2897 17.2244C30.4895 16.9516 30.4304 16.5685 30.1576 16.3687C27.7971 14.6394 25.087 13.5605 22.2198 13.1932L21.9698 12.3773C22.1086 12.2903 22.2276 12.1708 22.3114 12.024L23.7455 9.5107C23.9234 9.19922 23.922 8.81289 23.7419 8.50305C23.5618 8.19273 23.2271 8 22.8684 8H17.1316C16.7729 8 16.4382 8.19273 16.2584 8.50273C16.0781 8.81289 16.0766 9.19906 16.2545 9.51055L17.6887 12.0239C17.7725 12.1707 17.8914 12.2902 18.0303 12.3773L17.7797 13.1952C9.86117 14.2204 3.61516 20.6498 2.87164 28.6522H1.42859C0.640859 28.6522 0 29.293 0 30.0807V31.0195C0 31.8071 0.640859 32.448 1.42859 32.448H38.5715C39.3591 32.448 40.0001 31.8072 40.0001 31.0195V30.0807C40 29.293 39.3591 28.6522 38.5714 28.6522ZM20 13.0515C19.697 13.0515 19.3961 13.06 19.0968 13.0755L19.2629 12.5334H20.737L20.903 13.0754C20.6034 13.06 20.3023 13.0515 20 13.0515ZM17.5009 9.22453H22.499L21.3096 11.3089H18.6902L17.5009 9.22453Z" fill="#464646"/>
</g>
<defs>
<clipPath id="clip0_123_628">
<rect width="40" height="40" fill="white"/>
</clipPath>
</defs>
</svg>
