<svg width="40" height="40" viewBox="0 0 40 40" fill="none" xmlns="http://www.w3.org/2000/svg">
<g clip-path="url(#clip0_122_4476)">
<path d="M38.5714 27.005H36.5131V25.9195C37.0265 25.7028 37.3877 25.1941 37.3877 24.6028V24.3578C37.3877 23.5702 36.7469 22.9292 35.9591 22.9292H35.8318C35.7856 22.6711 35.663 22.4332 35.4737 22.2439L33.2509 20.0209C33.0061 19.7762 32.6807 19.6414 32.3346 19.6414C31.9886 19.6414 31.6631 19.7762 31.4184 20.021L30.5461 20.8933H29.1878C29.0662 20.7413 28.9357 20.5943 28.7949 20.4535L18.5823 10.2408C17.5684 9.22682 16.2203 8.66846 14.7865 8.66846C13.3527 8.66846 12.0046 9.22682 10.9908 10.2407C8.89773 12.3336 8.89773 15.7391 10.9907 17.8322L11.9748 18.8162C7.09836 19.4603 3.22227 22.573 2.62812 26.5563C2.60578 26.707 2.60805 26.858 2.6318 27.0049H1.42859C0.640859 27.005 0 27.6459 0 28.4335V29.9029C0 30.6906 0.640859 31.3315 1.42859 31.3315H31.102C31.4402 31.3315 31.7142 31.0574 31.7142 30.7192C31.7142 30.381 31.4402 30.107 31.102 30.107H1.42859C1.31602 30.107 1.22453 30.0155 1.22453 29.9029V28.4335C1.22453 28.321 1.31602 28.2295 1.42859 28.2295H38.5715C38.6841 28.2295 38.7755 28.321 38.7755 28.4335V29.9029C38.7755 30.0155 38.6841 30.107 38.5715 30.107H33.6327C33.2945 30.107 33.0204 30.381 33.0204 30.7192C33.0204 31.0574 33.2945 31.3315 33.6327 31.3315H38.5715C39.3591 31.3315 40.0001 30.6907 40.0001 29.9029V28.4335C40 27.6459 39.3591 27.005 38.5714 27.005ZM32.2845 20.887C32.2983 20.8731 32.3152 20.866 32.3348 20.866C32.3543 20.866 32.3713 20.8731 32.3851 20.8868L34.4273 22.9292H30.2421L32.2845 20.887ZM27.9094 22.189C27.9094 22.1498 27.9413 22.1179 27.9805 22.1179H29.3219L29.1959 22.2439C29.0066 22.4332 28.884 22.6711 28.8377 22.9293H27.9094V22.189ZM26.4095 19.7997L24.7976 21.4117C24.7349 21.4746 24.6514 21.5091 24.5627 21.5091C24.4739 21.5091 24.3905 21.4745 24.3277 21.4117C24.198 21.2821 24.198 21.0712 24.3275 20.9417L25.9395 19.3297L26.4095 19.7997ZM22.9955 16.3857L21.3838 17.9975C21.3209 18.0604 21.2376 18.0949 21.1488 18.0949C21.0599 18.0949 20.9765 18.0603 20.9138 17.9976C20.8509 17.9347 20.8163 17.8513 20.8163 17.7625C20.8163 17.6738 20.8509 17.5904 20.9138 17.5276L22.5256 15.9156L22.9955 16.3857ZM19.1115 12.5018L19.5816 12.9718L17.9695 14.5838C17.9069 14.6465 17.8235 14.6811 17.7348 14.6811C17.646 14.6811 17.5627 14.6465 17.4996 14.5835C17.4368 14.5208 17.4024 14.4374 17.4024 14.3486C17.4024 14.2599 17.437 14.1764 17.4996 14.1137L19.1115 12.5018ZM8.5043 21.0881C8.69086 20.9988 8.88133 20.9142 9.0757 20.8346V21.6612C9.0757 21.8188 8.9475 21.9469 8.79 21.9469C8.63242 21.9469 8.5043 21.8187 8.5043 21.6612V21.0881ZM25.0706 27.005C25.0944 26.858 25.0967 26.707 25.0743 26.5563C24.8989 25.3795 24.4399 24.2627 23.7102 23.2371C23.5143 22.9615 23.132 22.8971 22.8564 23.0931C22.5809 23.2892 22.5164 23.6714 22.7124 23.947C23.3293 24.8139 23.7164 25.7525 23.8632 26.7369C23.8734 26.805 23.8535 26.874 23.8088 26.9259C23.7699 26.9709 23.7157 26.998 23.6575 27.005H4.045C3.9868 26.998 3.93273 26.971 3.89406 26.9261C3.84906 26.8739 3.82914 26.8049 3.8393 26.737C4.13695 24.741 5.41672 22.9971 7.28547 21.7726C7.34289 22.5533 7.99484 23.1714 8.79 23.1714C9.62273 23.1714 10.3002 22.4939 10.3002 21.6612V20.4094C10.9521 20.2222 11.6352 20.0853 12.341 20.0042V21.6611C12.341 22.4938 13.0185 23.1713 13.8513 23.1713C14.684 23.1713 15.3615 22.4938 15.3615 21.6611V20.0055C16.0616 20.0867 16.7452 20.2236 17.4023 20.4128V21.6611C17.4023 22.4938 18.0798 23.1713 18.9125 23.1713C19.7056 23.1713 20.3564 22.5565 20.4167 21.7785C20.7913 22.0243 21.1448 22.2918 21.4729 22.581C21.7266 22.8046 22.1134 22.7802 22.337 22.5266C22.5606 22.2729 22.5362 21.886 22.2827 21.6624C20.1421 19.7755 17.069 18.6933 13.8513 18.6933C13.7626 18.6933 13.6742 18.6941 13.586 18.6957L11.8566 16.9663C10.241 15.3506 10.241 12.7221 11.8566 11.1065C12.6392 10.3239 13.6798 9.89299 14.7865 9.89299C15.8933 9.89299 16.9338 10.3239 17.7163 11.1067L18.2456 11.636L16.6337 13.2478C16.3396 13.5419 16.1777 13.9329 16.1777 14.3486C16.1777 14.7646 16.3397 15.1555 16.6336 15.4492C16.9277 15.7434 17.3187 15.9055 17.7345 15.9056C17.7345 15.9056 17.7345 15.9056 17.7346 15.9056C18.1505 15.9056 18.5415 15.7436 18.8352 15.4496L20.4472 13.8376L21.6595 15.0499L20.0478 16.6617C19.7536 16.9558 19.5916 17.3467 19.5916 17.7626C19.5917 18.1784 19.7536 18.5693 20.0477 18.8634C20.3512 19.1669 20.7498 19.3186 21.1485 19.3186C21.5472 19.3186 21.9459 19.1669 22.2494 18.8634L23.8612 17.2516L25.0734 18.4638L23.4614 20.0758C22.8545 20.6829 22.8545 21.6705 23.4616 22.2775C23.7556 22.5717 24.1466 22.7336 24.5623 22.7336C24.9782 22.7336 25.3691 22.5717 25.6631 22.2775L27.275 20.6656L27.5703 20.9609C27.0563 21.1329 26.6845 21.6179 26.6845 22.1889V22.9292H26.3261C25.5384 22.9292 24.8975 23.57 24.8975 24.3578V24.6027C24.8975 25.194 25.2587 25.7027 25.7721 25.9195V27.0049H25.0706V27.005ZM13.5655 21.6611V19.9212C13.6605 19.9192 13.7557 19.9178 13.8513 19.9178C13.9466 19.9178 14.0419 19.919 14.137 19.921V21.6611C14.137 21.8187 14.0087 21.9468 13.8513 21.9468C13.6938 21.9468 13.5655 21.8186 13.5655 21.6611ZM18.6268 21.6611V20.839C18.8206 20.9188 19.0113 21.003 19.1982 21.0924V21.6612C19.1982 21.8188 19.07 21.9469 18.9125 21.9469C18.7549 21.9469 18.6268 21.8186 18.6268 21.6611ZM36.1633 24.6027C36.1633 24.7153 36.0718 24.8067 35.9592 24.8067H35.2887V27.0049H34.1225V25.8213C34.1225 25.4831 33.8484 25.209 33.5102 25.209C33.172 25.209 32.898 25.4831 32.898 25.8213V27.0049H31.7551V25.8213C31.7551 25.4831 31.481 25.209 31.1428 25.209C30.8046 25.209 30.5305 25.4831 30.5305 25.8213V27.0049H29.3877V25.8213C29.3877 25.4831 29.1136 25.209 28.7754 25.209C28.4372 25.209 28.1631 25.4831 28.1631 25.8213V27.0049H26.997V24.8067H26.3264C26.2138 24.8067 26.1223 24.7153 26.1223 24.6027V24.3578C26.1223 24.2452 26.2138 24.1537 26.3264 24.1537H35.9591C36.0716 24.1537 36.1631 24.2452 36.1631 24.3578V24.6027H36.1633Z" fill="#464646"/>
</g>
<defs>
<clipPath id="clip0_122_4476">
<rect width="40" height="40" fill="white"/>
</clipPath>
</defs>
</svg>
