<svg width="40" height="40" viewBox="0 0 40 40" fill="none" xmlns="http://www.w3.org/2000/svg">
<path d="M24.7595 16.3914H23.4286C23.0905 16.3914 22.8163 16.6654 22.8163 17.0036C22.8163 17.3417 23.0905 17.6159 23.4286 17.6159H24.7595C25.0976 17.6159 25.3717 17.3417 25.3717 17.0036C25.3717 16.6654 25.0976 16.3914 24.7595 16.3914Z" fill="#464646"/>
<path d="M21.5758 16.3914H21.0612C20.7231 16.3914 20.449 16.6654 20.449 17.0036C20.449 17.3417 20.7231 17.6159 21.0612 17.6159H21.5758C21.9139 17.6159 22.188 17.3417 22.188 17.0036C22.188 16.6654 21.9139 16.3914 21.5758 16.3914Z" fill="#464646"/>
<path d="M38.4859 26.0024H34.4758C34.3098 24.7752 33.2602 23.8262 31.9934 23.8262C31.6254 23.8262 31.2759 23.9067 30.9609 24.0505C30.5438 23.739 30.0271 23.5542 29.4684 23.5542C29.331 23.5542 29.1964 23.5658 29.065 23.5872L28.5773 21.9475C28.4809 21.6234 28.1398 21.439 27.8159 21.5353C27.4918 21.6317 27.3072 21.9725 27.4036 22.2967L27.9348 24.0825C27.3606 24.5301 26.9854 25.2224 26.9645 26.0023H18.1223C17.7842 26.0023 17.5101 26.2764 17.5101 26.6146C17.5101 26.9528 17.7842 27.2268 18.1223 27.2268H38.4859C38.6456 27.2268 38.7755 27.359 38.7755 27.5215V28.0654C38.7755 28.2278 38.6456 28.3599 38.4859 28.3599H28.9796C28.6415 28.3599 28.3673 28.634 28.3673 28.9722C28.3673 29.3104 28.6415 29.5844 28.9796 29.5844H33.5421C33.1245 30.4223 32.2634 30.9988 31.2706 30.9988H8.72945C7.73672 30.9988 6.87547 30.4222 6.45797 29.5844H26.0409C26.379 29.5844 26.6531 29.3104 26.6531 28.9722C26.6531 28.634 26.379 28.3599 26.0409 28.3599H1.51398C1.3543 28.3599 1.22453 28.2278 1.22453 28.0654V27.5215C1.22453 27.359 1.35438 27.2268 1.51398 27.2268H15.102C15.4402 27.2268 15.7143 26.9528 15.7143 26.6146C15.7143 26.2764 15.4402 26.0023 15.102 26.0023H13.2161C13.1936 25.1586 12.7557 24.4173 12.1009 23.9774L13.4588 19.4287H20.4698V19.8138C20.4698 20.7514 21.2299 21.5142 22.1642 21.5142C22.3487 21.5142 22.5283 21.4843 22.6974 21.4279C22.9653 22.0134 23.5552 22.4209 24.2382 22.4209C25.1725 22.4209 25.9326 21.6581 25.9326 20.7207V19.4289H26.5505L26.8452 20.4198C26.9416 20.744 27.2823 20.9284 27.6066 20.8321C27.9307 20.7357 28.1153 20.3948 28.0189 20.0707L26.7612 15.8432C26.6348 15.418 26.3276 15.0793 25.9408 14.8996C26.064 14.4579 26.1295 13.9917 26.1295 13.5229C26.1295 11.1661 24.5365 9.24864 22.5784 9.24864C21.4622 9.24864 20.4653 9.87239 19.8141 10.8447C19.7802 10.2342 19.5398 9.60825 18.9247 8.98966C18.1468 8.20739 17.1076 7.77661 15.9982 7.77661C15.1805 7.77661 14.113 7.94794 13.8251 8.84505C13.3501 10.3243 13.6995 11.9105 14.7354 13.0163C14.4844 13.4083 14.338 13.874 14.338 14.3736C14.338 14.5174 14.3506 14.658 14.3739 14.7952C13.8447 14.9111 13.413 15.3023 13.2519 15.842L10.946 23.5657C10.8689 23.5585 10.7909 23.5544 10.712 23.5544C10.0434 23.5544 9.43578 23.8192 8.98602 24.249C8.66156 24.0945 8.29898 24.0079 7.91656 24.0079C6.71289 24.0079 5.70508 24.8645 5.46516 26.0026H1.51398C0.679219 26.0024 0 26.6839 0 27.5216V28.0656C0 28.9032 0.679219 29.5845 1.51398 29.5845H5.14219C5.62578 31.1128 7.05023 32.2233 8.72945 32.2233H31.2705C32.9498 32.2233 34.3742 31.1127 34.8578 29.5845H38.4859C39.3208 29.5845 40 28.903 40 28.0656V27.5216C40 26.6839 39.3208 26.0024 38.4859 26.0024ZM28.1905 26.0024C28.226 25.3218 28.7848 24.7787 29.4684 24.7787C30.1522 24.7787 30.7109 25.3218 30.7464 26.0024H28.1905ZM31.9726 26.0024C31.9637 25.6725 31.8919 25.3581 31.7677 25.0713C31.8409 25.0581 31.9163 25.0508 31.9933 25.0508C32.583 25.0508 33.0795 25.4549 33.2281 26.0024H31.9726ZM22.0298 10.5604C21.8266 10.9881 22.1629 11.4229 22.6059 11.4345C23.0473 11.446 23.4158 11.0449 23.2428 10.6005C23.6039 10.7418 23.9282 10.9952 24.1926 11.3298C23.8269 11.4515 23.662 11.895 23.8609 12.2256C24.0377 12.5195 24.4579 12.609 24.7571 12.454C24.8266 12.6966 24.8733 12.9536 24.8934 13.2209C24.5034 13.1246 24.0692 13.3507 24.0454 13.7804C24.034 13.9868 24.1296 14.1883 24.2968 14.31C24.4438 14.417 24.6225 14.4389 24.7994 14.4243C24.7723 14.5379 24.7409 14.6498 24.7041 14.7587H22.4764C22.4958 14.6331 22.5059 14.5045 22.5059 14.3735C22.5059 14.0547 22.4461 13.7497 22.338 13.4688C22.7397 13.6445 23.2578 13.4038 23.2839 12.942C23.2964 12.7209 23.1848 12.5056 22.997 12.3884C22.8404 12.2906 22.626 12.27 22.4467 12.3106C22.1998 12.3666 22.0084 12.5775 21.9759 12.8285C21.8054 12.609 21.5995 12.4187 21.3669 12.2661C21.4387 12.1658 21.4814 12.0433 21.4814 11.9104C21.4814 11.6107 21.2659 11.3618 20.9816 11.309C21.2709 10.9498 21.6303 10.6877 22.0298 10.5604ZM20 13.0815C20.7066 13.0815 21.2814 13.6611 21.2814 14.3735C21.2814 14.5079 21.2593 14.6368 21.2214 14.7587H18.7785C18.7406 14.6368 18.7185 14.5079 18.7185 14.3735C18.7185 13.6611 19.2934 13.0815 20 13.0815ZM14.9909 9.21935C14.9961 9.2031 15.0051 9.18825 15.0168 9.17646C15.0284 9.16481 15.0422 9.15638 15.0576 9.1513C15.3646 9.05153 15.681 9.00099 15.9981 9.00099C16.779 9.00099 17.51 9.30356 18.0562 9.85302C18.5965 10.3963 18.717 10.8949 18.4539 11.7693L17.206 10.5144C16.9677 10.2746 16.5801 10.2736 16.3402 10.512C16.1005 10.7504 16.0995 11.1381 16.3379 11.3779L16.8155 11.8582C16.3848 11.863 15.9798 11.9772 15.6271 12.1749C14.8981 11.3939 14.653 10.271 14.9909 9.21935ZM17.5237 14.7586H15.6224C15.5845 14.6368 15.5624 14.5079 15.5624 14.3734C15.5624 13.661 16.1373 13.0815 16.8439 13.0815C17.1673 13.0815 17.4626 13.2031 17.688 13.4033C17.5632 13.702 17.494 14.0297 17.494 14.3735C17.4941 14.5044 17.5042 14.633 17.5237 14.7586ZM14.4252 16.1922C14.4624 16.0672 14.5738 15.9833 14.7021 15.9833H25.3105C25.4391 15.9833 25.5505 16.0672 25.5877 16.1925L26.1862 18.2046H25.3204C24.9823 18.2046 24.7081 18.4786 24.7081 18.8168V20.721C24.7081 20.9833 24.4973 21.1968 24.2383 21.1968C23.9792 21.1968 23.7684 20.9834 23.7684 20.721V20.2484C23.7684 19.9582 23.5647 19.7079 23.2805 19.6489C22.9962 19.5902 22.7098 19.7386 22.5945 20.0048C22.5194 20.178 22.3505 20.29 22.1643 20.29C21.9052 20.29 21.6945 20.0765 21.6945 19.814V18.8167C21.6945 18.4785 21.4203 18.2044 21.0822 18.2044H13.8245L14.4252 16.1922ZM10.712 24.7787C11.3957 24.7787 11.9545 25.3218 11.99 26.0024H9.43398C9.46937 25.3218 10.0281 24.7787 10.712 24.7787ZM7.91648 25.2322C8.06 25.2322 8.19773 25.2566 8.32641 25.3009C8.25516 25.5229 8.21531 25.7586 8.20867 26.0026H6.74516C6.94437 25.5493 7.39414 25.2322 7.91648 25.2322Z" fill="#464646"/>
</svg>
