<svg width="40" height="40" viewBox="0 0 40 40" fill="none" xmlns="http://www.w3.org/2000/svg">
<g clip-path="url(#clip0_122_4634)">
<path d="M34.5548 29.4006C34.2752 29.2108 33.8944 29.2836 33.7045 29.5635C31.6107 32.6487 28.1441 34.4907 24.4309 34.4907C24.0927 34.4907 23.8186 34.7648 23.8186 35.1029C23.8186 35.4411 24.0927 35.7152 24.4309 35.7152C28.5503 35.7152 32.3958 33.6726 34.7177 30.2511C34.9076 29.9712 34.8347 29.5905 34.5548 29.4006Z" fill="#464646"/>
<path d="M36.2527 23.6397C35.9138 23.6125 35.6204 23.8638 35.5933 24.2009C35.4987 25.3759 35.2201 26.522 34.7653 27.607C34.6345 27.9189 34.7814 28.2776 35.0933 28.4083C35.1705 28.4408 35.2508 28.4561 35.3297 28.4561C35.5691 28.4561 35.7963 28.3148 35.8946 28.0803C36.3995 26.8755 36.7088 25.6034 36.8138 24.2991C36.841 23.9621 36.5898 23.6669 36.2527 23.6397Z" fill="#464646"/>
<path d="M14.9968 11.4512H10.6225C9.46919 11.4512 8.53092 10.513 8.53092 9.35969C8.53092 8.2065 9.46919 7.26822 10.6225 7.26822H12.6353C12.9735 7.26822 13.2475 6.99408 13.2475 6.65596C13.2475 6.31784 12.9735 6.0437 12.6353 6.0437H10.6225C8.79396 6.0437 7.3064 7.53127 7.3064 9.35969C7.3064 11.1883 8.79396 12.6758 10.6225 12.6758H14.9968C15.335 12.6758 15.6091 12.4016 15.6091 12.0635C15.6091 11.7254 15.335 11.4512 14.9968 11.4512Z" fill="#464646"/>
<path d="M17.0548 0H14.3884C14.0502 0 13.7761 0.274138 13.7761 0.612261C13.7761 0.950383 14.0502 1.22452 14.3884 1.22452H17.0547C18.3834 1.22452 19.4643 2.30553 19.4643 3.63419C19.4643 4.96285 18.3834 6.04378 17.0547 6.04378H14.6931C14.3549 6.04378 14.0809 6.31792 14.0809 6.65604C14.0809 6.99416 14.3549 7.2683 14.6931 7.2683H17.0547C19.0585 7.2683 20.6888 5.638 20.6888 3.63419C20.6888 1.6303 19.0586 0 17.0548 0Z" fill="#464646"/>
<path d="M30.0959 8.06574H25.2344C24.2213 8.06574 23.3968 7.24137 23.3968 6.2281C23.3968 5.21491 24.2212 4.39054 25.2344 4.39054H26.9247C27.2629 4.39054 27.5369 4.1164 27.5369 3.77828C27.5369 3.44015 27.2629 3.16602 26.9247 3.16602H25.2344C23.5459 3.16602 22.1724 4.53968 22.1724 6.22802C22.1724 7.91653 23.546 9.29011 25.2344 9.29011H30.0959C30.8901 9.29011 31.5364 9.93628 31.5364 10.7305V12.0633C31.5364 12.4014 31.8104 12.6756 32.1486 12.6756C32.4868 12.6756 32.7609 12.4014 32.7609 12.0633V10.7305C32.7609 9.26128 31.5653 8.06574 30.0959 8.06574Z" fill="#464646"/>
<path d="M37.1999 21.7269H36.6779C36.6851 21.6709 36.69 21.6139 36.69 21.5552C36.6901 20.9297 36.2576 20.4628 35.9101 20.0876C35.728 19.8909 35.5396 19.6876 35.4738 19.5286C35.4143 19.3851 35.4058 19.1194 35.3974 18.8624C35.3805 18.3421 35.3593 17.6945 34.9007 17.2356C34.442 16.777 33.7944 16.7559 33.274 16.7389C33.017 16.7305 32.7513 16.722 32.6078 16.6625C32.4487 16.5966 32.2454 16.4084 32.0487 16.2263C31.6735 15.8789 31.2065 15.4464 30.581 15.4465C29.9562 15.4465 29.4894 15.8788 29.1142 16.2261C28.9175 16.4083 28.714 16.5967 28.5546 16.6626C28.4112 16.722 28.1456 16.7305 27.8887 16.7388C27.6217 16.7475 27.3217 16.7578 27.0304 16.8273C26.0519 15.5562 24.5162 14.7349 22.7917 14.7349C20.8943 14.7349 19.2252 15.7287 18.2758 17.2226C17.5153 16.8063 16.6432 16.5693 15.7167 16.5693C15.4518 16.5693 15.1914 16.5894 14.9368 16.6268C14.6279 15.5363 13.6243 14.7349 12.4362 14.7349C11.395 14.7349 10.4955 15.3506 10.0809 16.2367C9.48345 16.0052 8.83462 15.8775 8.15619 15.8775C5.56606 15.8775 3.40076 17.7285 2.91209 20.177C2.54077 20.6202 2.31452 21.1884 2.30608 21.8086C1.68484 22.0161 1.23523 22.6023 1.23523 23.2925C1.23523 26.8477 2.55131 30.2601 4.94098 32.901C5.16809 33.1518 5.55512 33.171 5.80582 32.9442C6.05652 32.7173 6.07597 32.3301 5.84902 32.0794C5.01411 31.1568 4.3231 30.1309 3.78701 29.0344H9.09181C9.43001 29.0344 9.70407 28.7603 9.70407 28.4222C9.70407 28.0841 9.43001 27.8099 9.09181 27.8099H3.26451C3.06061 27.2559 2.89444 26.6881 2.76701 26.11H22.2517C22.5899 26.11 22.864 25.8359 22.864 25.4977C22.864 25.1596 22.5899 24.8855 22.2517 24.8855H2.55756C2.49327 24.3597 2.45991 23.8278 2.45991 23.2925C2.45991 23.1046 2.61272 22.9518 2.80061 22.9518H37.2C37.3878 22.9518 37.5405 23.1046 37.5405 23.2925C37.5405 30.521 31.6596 36.4018 24.4311 36.4018H15.5693C12.6427 36.4018 9.87274 35.4546 7.55846 33.6625C7.2912 33.4555 6.90651 33.5043 6.69964 33.7717C6.49261 34.0391 6.54144 34.4237 6.80886 34.6306C8.17604 35.6893 9.68884 36.4777 11.2955 36.9795V37.7692C11.2955 38.9993 12.2962 40 13.5262 40H26.4743C27.7044 40 28.7051 38.9993 28.7051 37.7692V36.9753C34.5279 35.1526 38.765 29.7081 38.765 23.2922C38.7649 22.429 38.0629 21.7269 37.1999 21.7269ZM12.4364 15.9592C13.0589 15.9592 13.5854 16.3753 13.7542 16.9438C13.214 17.1578 12.7165 17.4566 12.2788 17.825C11.9578 17.4363 11.5835 17.0934 11.1666 16.8081C11.3736 16.3102 11.8646 15.9592 12.4364 15.9592ZM3.53584 21.7269C3.59545 21.0233 4.18614 20.4687 4.90489 20.4687C5.62371 20.4687 6.21441 21.0233 6.27402 21.7269H3.53584ZM8.49135 21.7269H7.82151V21.225C7.82151 21.0404 7.97182 20.8901 8.1565 20.8901C8.34119 20.8901 8.49135 21.0404 8.49135 21.225V21.7269ZM10.3738 21.7269H9.71571V21.225C9.71571 20.3652 9.01619 19.6656 8.15635 19.6656C7.6694 19.6656 7.23565 19.891 6.94979 20.2418C6.81081 20.0647 6.64956 19.9057 6.46988 19.7697C6.87894 19.2962 7.48299 18.9958 8.15635 18.9958C9.38548 18.9958 10.3855 19.9958 10.3855 21.225V21.5161H10.3856C10.3804 21.5861 10.3763 21.6563 10.3738 21.7269ZM11.0397 19.3276C10.4216 18.3909 9.36024 17.7714 8.15643 17.7714C6.97495 17.7714 5.9309 18.3682 5.30793 19.2757C5.17653 19.2551 5.04192 19.2443 4.90481 19.2443C4.77637 19.2443 4.65028 19.254 4.52684 19.272C5.22403 17.9811 6.58902 17.1016 8.15635 17.1016C9.48938 17.1016 10.6763 17.7379 11.4305 18.7223C11.2871 18.9144 11.1568 19.1169 11.0397 19.3276ZM15.4415 21.7269C15.502 21.6396 15.6028 21.582 15.7168 21.582C15.8308 21.582 15.9315 21.6396 15.9919 21.7269H15.4415ZM17.2634 21.7269C17.1692 20.9565 16.5123 20.3576 15.7169 20.3576C14.9215 20.3576 14.2643 20.9565 14.1702 21.7269H13.4964C13.5931 20.5864 14.5517 19.6876 15.7168 19.6876C16.882 19.6876 17.8405 20.5863 17.9371 21.7269H17.2634ZM19.1649 21.7269C19.066 19.9106 17.5574 18.4632 15.717 18.4632C13.8765 18.4632 12.3678 19.9105 12.2689 21.7269H11.5984C11.6981 19.5412 13.5071 17.7935 15.717 17.7935C17.9268 17.7935 19.7357 19.5412 19.8354 21.7269H19.1649ZM23.1269 21.7269H23.1269H22.4571V20.0826C22.4571 19.8979 22.6073 19.7476 22.7919 19.7476C22.9767 19.7476 23.1269 19.8979 23.1269 20.0826V21.7269ZM25.0211 21.7269H24.3514V20.0826C24.3514 19.2227 23.6519 18.5231 22.7919 18.5231C21.9321 18.5231 21.2325 19.2227 21.2325 20.0826V21.7269H21.0598C21.0348 21.015 20.8701 20.3385 20.5921 19.7232C20.7645 18.6644 21.6852 17.8534 22.7919 17.8534C24.0211 17.8534 25.0211 18.8534 25.0211 20.0826V21.7269ZM26.9153 21.7269H26.2456V20.0826C26.2456 18.1782 24.6963 16.6288 22.7919 16.6288C21.4876 16.6288 20.3501 17.3556 19.7627 18.4255C19.6113 18.2503 19.4494 18.0848 19.2768 17.9305C20.0027 16.749 21.3065 15.9592 22.7919 15.9592C25.0658 15.9592 26.9155 17.8089 26.9155 20.0826L26.9153 21.7269ZM31.0967 21.7269H30.0662C30.048 21.6727 30.0377 21.615 30.0377 21.5548C30.0377 21.2551 30.2815 21.0113 30.5812 21.0113C30.881 21.0113 31.1249 21.2551 31.1249 21.5548C31.1251 21.615 31.1148 21.6728 31.0967 21.7269ZM33.0574 21.7269H32.3405C32.3461 21.6703 32.3496 21.6129 32.3496 21.5548C32.3496 20.58 31.5564 19.7869 30.5813 19.7869C29.6066 19.7869 28.8135 20.58 28.8135 21.5548C28.8135 21.6129 28.817 21.6703 28.8225 21.7269H28.1398V21.1047C28.3524 19.9497 29.3659 19.0718 30.5813 19.0718C31.9505 19.0718 33.0645 20.1858 33.0645 21.5549C33.0645 21.6128 33.0614 21.67 33.0574 21.7269ZM35.3977 21.7269H34.2843C34.2869 21.6699 34.289 21.6126 34.289 21.5548C34.289 19.5105 32.6258 17.8473 30.5814 17.8473C29.5807 17.8473 28.6727 18.2472 28.0051 18.894C27.9324 18.5748 27.8319 18.2662 27.7046 17.9713C27.7805 17.9674 27.8566 17.9648 27.9285 17.9625C28.2948 17.9505 28.6737 17.9384 29.0228 17.7939C29.385 17.6441 29.6831 17.368 29.9463 17.1245C30.1531 16.933 30.4361 16.6708 30.5813 16.6708C30.7267 16.6708 31.01 16.933 31.2169 17.1246C31.4798 17.368 31.7778 17.644 32.1395 17.7937C32.4887 17.9384 32.8678 17.9506 33.2342 17.9626C33.539 17.9726 33.9184 17.9848 34.0349 18.1012C34.1514 18.2178 34.1637 18.5973 34.1736 18.902C34.1855 19.2685 34.1978 19.6474 34.3424 19.9967C34.4922 20.3586 34.7682 20.6565 35.0116 20.9195C35.2032 21.1263 35.4654 21.4094 35.4654 21.5553C35.4654 21.601 35.4393 21.6604 35.3977 21.7269ZM27.4805 37.769C27.4805 38.3238 27.0291 38.7752 26.4743 38.7752H13.5261C12.9712 38.7752 12.5198 38.3238 12.5198 37.769V37.302C13.5109 37.5162 14.531 37.6259 15.5693 37.6259H24.431C25.4772 37.6259 26.4975 37.5121 27.4805 37.2983V37.769Z" fill="#464646"/>
</g>
<defs>
<clipPath id="clip0_122_4634">
<rect width="40" height="40" fill="white"/>
</clipPath>
</defs>
</svg>
