<svg width="40" height="40" viewBox="0 0 40 40" fill="none" xmlns="http://www.w3.org/2000/svg">
<path d="M30.9404 17.0348C30.6078 16.9755 30.2893 17.1963 30.2294 17.529L30.0239 18.6718C29.964 19.0046 30.1853 19.323 30.518 19.3828C30.5547 19.3894 30.5911 19.3925 30.6272 19.3925C30.9179 19.3925 31.1757 19.1847 31.229 18.8886L31.4346 17.7457C31.4945 17.413 31.2732 17.0946 30.9404 17.0348Z" fill="#464646"/>
<path d="M32.0663 12.9943C31.95 12.8552 31.7779 12.7748 31.5967 12.7748H28.9748C28.6367 12.7748 28.3625 13.0488 28.3625 13.387C28.3625 13.7252 28.6367 13.9993 28.9748 13.9993H30.8644L30.4938 16.0595C30.434 16.3924 30.6552 16.7107 30.988 16.7706C31.0247 16.7771 31.0611 16.7802 31.0971 16.7802C31.3878 16.7802 31.6457 16.5724 31.699 16.2763L32.1991 13.4955C32.2313 13.317 32.1826 13.1335 32.0663 12.9943Z" fill="#464646"/>
<path d="M4.21929 26.5999H4.13546C3.79733 26.5999 3.52319 26.8739 3.52319 27.2121C3.52319 27.5503 3.79733 27.8244 4.13546 27.8244H4.21929C4.55741 27.8244 4.83155 27.5503 4.83155 27.2121C4.83155 26.8739 4.55741 26.5999 4.21929 26.5999Z" fill="#464646"/>
<path d="M6.65196 27.858H6.56814C6.23001 27.858 5.95587 28.1321 5.95587 28.4703C5.95587 28.8085 6.23001 29.0826 6.56814 29.0826H6.65196C6.99009 29.0826 7.26423 28.8085 7.26423 28.4703C7.26415 28.1321 6.99009 27.858 6.65196 27.858Z" fill="#464646"/>
<path d="M6.14861 30.4585H6.06478C5.72665 30.4585 5.45251 30.7326 5.45251 31.0708C5.45251 31.409 5.72665 31.683 6.06478 31.683H6.14861C6.48673 31.683 6.76087 31.409 6.76087 31.0708C6.76079 30.7326 6.48673 30.4585 6.14861 30.4585Z" fill="#464646"/>
<path d="M8.16179 31.7167H8.07796C7.73984 31.7167 7.4657 31.9907 7.4657 32.3289C7.4657 32.6671 7.73984 32.9412 8.07796 32.9412H8.16179C8.49992 32.9412 8.77406 32.6671 8.77406 32.3289C8.77406 31.9907 8.49992 31.7167 8.16179 31.7167Z" fill="#464646"/>
<path d="M6.06476 24.4188H5.98086C5.64273 24.4188 5.36859 24.6929 5.36859 25.0311C5.36859 25.3692 5.64273 25.6434 5.98086 25.6434H6.06476C6.40289 25.6434 6.67703 25.3693 6.67703 25.0311C6.67695 24.6929 6.40289 24.4188 6.06476 24.4188Z" fill="#464646"/>
<path d="M20.6397 18.767H20.5557C20.2176 18.767 19.9435 19.041 19.9435 19.3792C19.9435 19.7174 20.2176 19.9915 20.5557 19.9915H20.6397C20.9778 19.9915 21.2519 19.7174 21.2519 19.3792C21.2519 19.041 20.9778 18.767 20.6397 18.767Z" fill="#464646"/>
<path d="M22.9044 13.9857H22.8206C22.4825 13.9857 22.2083 14.2598 22.2083 14.598C22.2083 14.9362 22.4825 15.2102 22.8206 15.2102H22.9044C23.2425 15.2102 23.5167 14.9362 23.5167 14.598C23.5167 14.2598 23.2425 13.9857 22.9044 13.9857Z" fill="#464646"/>
<path d="M26.9309 18.5154H26.8471C26.5089 18.5154 26.2348 18.7894 26.2348 19.1276C26.2348 19.4658 26.5089 19.7399 26.8471 19.7399H26.9309C27.269 19.7399 27.5432 19.4658 27.5432 19.1276C27.5432 18.7895 27.269 18.5154 26.9309 18.5154Z" fill="#464646"/>
<path d="M19.2244 15.6735H19.1405C18.8024 15.6735 18.5283 15.9475 18.5283 16.2857C18.5283 16.6239 18.8024 16.898 19.1405 16.898H19.2244C19.5626 16.898 19.8367 16.6239 19.8367 16.2857C19.8367 15.9475 19.5626 15.6735 19.2244 15.6735Z" fill="#464646"/>
<path d="M23.3238 22.2063H23.24C22.9019 22.2063 22.6277 22.4804 22.6277 22.8186C22.6277 23.1568 22.9019 23.4308 23.24 23.4308H23.3238C23.662 23.4308 23.9361 23.1568 23.9361 22.8186C23.9361 22.4804 23.662 22.2063 23.3238 22.2063Z" fill="#464646"/>
<path d="M26.6793 23.7161H26.5954C26.2572 23.7161 25.9831 23.9901 25.9831 24.3283C25.9831 24.6665 26.2572 24.9406 26.5954 24.9406H26.6793C27.0174 24.9406 27.2915 24.6665 27.2915 24.3283C27.2914 23.9902 27.0174 23.7161 26.6793 23.7161Z" fill="#464646"/>
<path d="M26.4275 27.4071H26.3437C26.0056 27.4071 25.7314 27.6812 25.7314 28.0194C25.7314 28.3576 26.0056 28.6316 26.3437 28.6316H26.4275C26.7657 28.6316 27.0398 28.3576 27.0398 28.0194C27.0398 27.6812 26.7657 27.4071 26.4275 27.4071Z" fill="#464646"/>
<path d="M24.0788 25.5616H23.995C23.6569 25.5616 23.3828 25.8357 23.3828 26.1739C23.3828 26.5121 23.6569 26.7862 23.995 26.7862H24.0788C24.4169 26.7862 24.691 26.5121 24.691 26.1739C24.691 25.8357 24.4169 25.5616 24.0788 25.5616Z" fill="#464646"/>
<path d="M39.3877 17.6735C39.0496 17.6735 38.7754 17.9476 38.7754 18.2858V19.7383C38.7754 21.5891 37.2733 23.0949 35.4267 23.0949H32.3361L32.5563 21.8704H35.4267C36.598 21.8704 37.5509 20.914 37.5509 19.7383V11.9987C37.5509 10.8231 36.598 9.86671 35.4267 9.86671H34.7156L34.8163 9.30664C34.8565 9.08289 34.8483 8.85711 34.796 8.64226H35.4267C37.2733 8.64226 38.7754 10.148 38.7754 11.9987V15.6735C38.7754 16.0117 39.0495 16.2858 39.3876 16.2858C39.7258 16.2858 39.9999 16.0117 39.9999 15.6735V11.9987C39.9999 9.47281 37.9484 7.41773 35.4267 7.41773H33.9403C33.6798 6.32703 32.6975 5.51344 31.5282 5.51344H21.6724C21.6571 5.49563 21.641 5.47836 21.6234 5.46211C21.3265 5.1875 20.9402 5.03625 20.5358 5.03625H13.7031C13.2271 5.03625 12.779 5.24594 12.4733 5.61211C12.1684 5.97774 12.0418 6.45633 12.1261 6.92516L16.4139 30.762C16.4164 30.7754 16.4206 30.7882 16.4233 30.8016C15.1334 31.0535 14.1565 32.1934 14.1565 33.5579C14.1565 34.3331 14.7864 34.9639 15.5608 34.9639H31.3816C32.1558 34.9639 32.7858 34.3331 32.7858 33.5579C32.7858 32.3393 32.0068 31.3 30.9215 30.9121C30.9353 30.863 30.9476 30.8132 30.9568 30.762L32.1157 24.3194H35.4266C37.9483 24.3194 39.9998 22.2643 39.9998 19.7383V18.2858C40 17.9476 39.7258 17.6735 39.3877 17.6735ZM34.4952 11.0912H35.4266C35.9228 11.0912 36.3264 11.4984 36.3264 11.9987V19.7383C36.3264 20.2387 35.9227 20.6459 35.4266 20.6459H32.7765L34.4952 11.0912ZM31.5282 6.73789C32.0132 6.73789 32.4348 7.01422 32.644 7.41773H31.4606C31.1225 7.41773 30.8484 7.6918 30.8484 8.03V8.60031C30.8484 8.79461 30.6902 8.95265 30.4959 8.95265C30.3016 8.95265 30.1435 8.79453 30.1435 8.60031V8.03C30.1435 7.6918 29.8694 7.41773 29.5312 7.41773H23.7374L23.0025 6.73789H31.5282ZM31.5614 33.5578C31.5614 33.6579 31.4808 33.7393 31.3816 33.7393H15.5608C15.4616 33.7393 15.381 33.6579 15.381 33.5578C15.381 32.6844 16.0897 31.9737 16.9607 31.9737H29.9814C30.8526 31.9737 31.5614 32.6844 31.5614 33.5578ZM29.7517 30.5453C29.7373 30.6257 29.6973 30.6956 29.6423 30.7492H17.7286C17.6736 30.6954 17.6335 30.6257 17.6191 30.5451L14.3042 12.1171H27.102C27.4402 12.1171 27.7143 11.843 27.7143 11.5048C27.7143 11.1666 27.4402 10.8926 27.102 10.8926H14.0839L13.679 8.64226H16.9003C17.2384 8.64226 17.5125 8.3682 17.5125 8.03C17.5125 7.6918 17.2384 7.41773 16.9003 7.41773H13.4588L13.3312 6.70836C13.3111 6.59688 13.3413 6.48305 13.4133 6.39664C13.4855 6.31016 13.5911 6.26071 13.703 6.26071H20.5357C20.631 6.26071 20.7218 6.29641 20.7917 6.36102C20.8323 6.39852 23.0819 8.47945 23.0819 8.47945C23.195 8.58414 23.3435 8.64219 23.4977 8.64219H28.9195C28.9418 9.49242 29.6404 10.1771 30.4959 10.1771C31.3515 10.1771 32.0501 9.49234 32.0723 8.64219H33.2391C33.2535 8.64219 33.2731 8.64414 33.2974 8.64812C33.3027 8.64898 33.308 8.64914 33.3133 8.64984C33.3969 8.66648 33.473 8.71101 33.5289 8.77781C33.6012 8.86469 33.6312 8.9782 33.6112 9.08953L33.2869 10.8923H30.0409C29.7027 10.8923 29.4286 11.1664 29.4286 11.5046C29.4286 11.8428 29.7027 12.1169 30.0409 12.1169H33.0667L29.7517 30.5453Z" fill="#464646"/>
<path d="M13.3878 18.6203C13.3877 16.9966 12.0665 15.6755 10.4427 15.6755H9.26779C8.80084 15.1028 7.83717 14.7407 6.69381 14.7407C5.55046 14.7407 4.58671 15.1028 4.11984 15.6755H2.94499C1.32117 15.6755 0 16.9966 0 18.6204V18.7038C0 18.8092 0.00617186 18.9149 0.0175781 19.02C0.000468749 19.0916 0.369296 21.8691 0.557968 23.1485C1.03953 26.4155 1.53758 29.7936 1.63922 33.1204C1.67226 34.1541 2.49953 34.9638 3.52249 34.9638H9.86529C10.8879 34.9638 11.7151 34.1542 11.7486 33.1194C11.8503 29.792 12.3485 26.4123 12.8304 23.1438C13.0189 21.8659 13.2136 20.5445 13.3828 19.2409C13.3924 19.1663 13.3878 18.6203 13.3878 18.6203ZM11.6505 22.7504H10.9388C10.6007 22.7504 10.3265 23.0245 10.3265 23.3627C10.3265 23.7009 10.6007 23.9749 10.9388 23.9749H11.4706C11.034 26.9619 10.6179 30.0285 10.5247 33.0809C10.5128 33.4501 10.2232 33.7392 9.86529 33.7392H3.52241C3.16445 33.7392 2.87476 33.4501 2.86296 33.0819C2.76968 30.0286 2.35359 26.9617 1.91695 23.9748H8.32647C8.66459 23.9748 8.93873 23.7007 8.93873 23.3625C8.93873 23.0243 8.66459 22.7502 8.32647 22.7502H1.73703C1.59273 21.7712 1.44609 20.7699 1.31125 19.7741H6.38053V19.8362C6.38053 20.6595 7.0503 21.3293 7.87358 21.3293C8.05647 21.3293 8.2317 21.2963 8.39373 21.2359V21.3463C8.39373 22.1695 9.0635 22.8392 9.88678 22.8392C10.71 22.8392 11.3797 22.1695 11.3797 21.3463V19.7741H12.0764C11.9415 20.7701 11.7948 21.7714 11.6505 22.7504ZM10.7633 18.5499C10.5903 18.5499 10.4254 18.623 10.3093 18.7513C10.1932 18.8795 10.1368 19.0509 10.154 19.223C10.1549 19.2316 10.1554 19.2404 10.1554 19.2491V21.3463C10.1554 21.4942 10.035 21.6148 9.88693 21.6148C9.73889 21.6148 9.61834 21.4943 9.61834 21.3463V19.2492C9.61834 19.2404 9.61881 19.2316 9.61975 19.2231C9.63693 19.0509 9.58053 18.8795 9.46451 18.7514C9.34842 18.6231 9.1835 18.5499 9.01053 18.5499H8.75451C8.41639 18.5499 8.14225 18.824 8.14225 19.1622V19.8365C8.14225 19.9845 8.02178 20.1052 7.87366 20.1052C7.72553 20.1052 7.60506 19.9846 7.60506 19.8365V19.1622C7.60506 18.824 7.33092 18.5499 6.9928 18.5499H1.22594C1.26304 17.6338 2.02 16.9001 2.94499 16.9001H4.46405C4.72382 16.9001 4.95522 16.7362 5.04155 16.4912C5.09429 16.3415 5.66319 15.9653 6.69389 15.9653C7.72459 15.9653 8.29358 16.3415 8.34623 16.4912C8.43248 16.7362 8.66405 16.9001 8.92373 16.9001H10.4427C11.3678 16.9001 12.1247 17.6339 12.1618 18.5499H10.7633V18.5499Z" fill="#464646"/>
</svg>
