<svg width="40" height="40" viewBox="0 0 40 40" fill="none" xmlns="http://www.w3.org/2000/svg">
<g clip-path="url(#clip0_122_4396)">
<path d="M20 5.0072C19.2861 5.0072 18.7052 5.58791 18.7052 6.30173C18.7052 7.01556 19.2861 7.59626 20 7.59626C20.2438 7.59626 20.4415 7.39869 20.4415 7.15494C20.4415 6.91126 20.2438 6.71361 20 6.71361C19.7729 6.71361 19.588 6.52884 19.588 6.30181C19.588 6.07462 19.7729 5.88978 20 5.88978C20.2272 5.88978 20.4121 6.07462 20.4121 6.30173C20.4121 6.54548 20.6097 6.74306 20.8535 6.74306C21.0973 6.74306 21.2949 6.54548 21.2949 6.30173C21.2948 5.58791 20.714 5.0072 20 5.0072Z" fill="#464646"/>
<path d="M8.68078 13.4895H7.60648C7.27047 13.4895 6.99805 13.7618 6.99805 14.0978C6.99805 14.4337 7.27047 14.7061 7.60648 14.7061H8.68086C9.01688 14.7061 9.2893 14.4337 9.2893 14.0978C9.28914 13.7618 9.0168 13.4895 8.68078 13.4895Z" fill="#464646"/>
<path d="M6.14839 15.1925H5.07401C4.738 15.1925 4.46558 15.4648 4.46558 15.8008C4.46558 16.1367 4.73792 16.4091 5.07401 16.4091H6.14839C6.4844 16.4091 6.75683 16.1367 6.75683 15.8008C6.75675 15.4648 6.48433 15.1925 6.14839 15.1925Z" fill="#464646"/>
<path d="M11.29 15.1925H10.2156C9.8796 15.1925 9.60718 15.4648 9.60718 15.8008C9.60718 16.1367 9.8796 16.4091 10.2156 16.4091H11.2901C11.6261 16.4091 11.8985 16.1367 11.8985 15.8008C11.8983 15.4648 11.626 15.1925 11.29 15.1925Z" fill="#464646"/>
<path d="M17.4293 13.4895H16.3549C16.0189 13.4895 15.7465 13.7618 15.7465 14.0978C15.7465 14.4337 16.0189 14.7061 16.3549 14.7061H17.4293C17.7653 14.7061 18.0377 14.4337 18.0377 14.0978C18.0376 13.7618 17.7653 13.4895 17.4293 13.4895Z" fill="#464646"/>
<path d="M14.8967 15.1925H13.8223C13.4863 15.1925 13.2139 15.4648 13.2139 15.8008C13.2139 16.1367 13.4862 16.4091 13.8223 16.4091H14.8967C15.2327 16.4091 15.5051 16.1367 15.5051 15.8008C15.5051 15.4648 15.2327 15.1925 14.8967 15.1925Z" fill="#464646"/>
<path d="M20.0385 15.1925H18.964C18.628 15.1925 18.3556 15.4648 18.3556 15.8008C18.3556 16.1367 18.628 16.4091 18.964 16.4091H20.0385C20.3745 16.4091 20.6469 16.1367 20.6469 15.8008C20.6469 15.4648 20.3745 15.1925 20.0385 15.1925Z" fill="#464646"/>
<path d="M26.1777 13.4895H25.1033C24.7673 13.4895 24.4949 13.7618 24.4949 14.0978C24.4949 14.4337 24.7673 14.7061 25.1033 14.7061H26.1777C26.5137 14.7061 26.7861 14.4337 26.7861 14.0978C26.786 13.7618 26.5137 13.4895 26.1777 13.4895Z" fill="#464646"/>
<path d="M23.6452 15.1925H22.5708C22.2348 15.1925 21.9624 15.4648 21.9624 15.8008C21.9624 16.1367 22.2348 16.4091 22.5708 16.4091H23.6452C23.9812 16.4091 24.2537 16.1367 24.2537 15.8008C24.2536 15.4648 23.9813 15.1925 23.6452 15.1925Z" fill="#464646"/>
<path d="M28.7868 15.1925H27.7124C27.3764 15.1925 27.104 15.4648 27.104 15.8008C27.104 16.1367 27.3764 16.4091 27.7124 16.4091H28.7868C29.1228 16.4091 29.3953 16.1367 29.3953 15.8008C29.3952 15.4648 29.1228 15.1925 28.7868 15.1925Z" fill="#464646"/>
<path d="M34.926 13.4895H33.8516C33.5156 13.4895 33.2433 13.7618 33.2433 14.0978C33.2433 14.4337 33.5156 14.7061 33.8516 14.7061H34.926C35.262 14.7061 35.5345 14.4337 35.5345 14.0978C35.5345 13.7618 35.262 13.4895 34.926 13.4895Z" fill="#464646"/>
<path d="M32.3935 15.1925H31.3191C30.9831 15.1925 30.7107 15.4648 30.7107 15.8008C30.7107 16.1367 30.9831 16.4091 31.3191 16.4091H32.3935C32.7295 16.4091 33.0019 16.1367 33.0019 15.8008C33.0019 15.4648 32.7296 15.1925 32.3935 15.1925Z" fill="#464646"/>
<path d="M39.1288 30.916C39.2451 30.6758 39.3104 30.4064 39.3104 30.122C39.3104 29.6196 39.1066 29.1639 38.7774 28.833C39.158 28.4205 39.3915 27.8705 39.3915 27.2662C39.3915 26.8241 39.2661 26.4109 39.0499 26.0591C39.6158 25.7465 40.0001 25.1439 40.0001 24.453C40.0001 23.6731 39.5105 23.0059 38.8226 22.7412C38.8234 22.7151 38.8257 22.6891 38.8257 22.6629C38.8257 22.0131 38.5486 21.4271 38.1066 21.0159C38.1068 21.0068 38.1074 20.9977 38.1074 20.9886V18.9659C38.3368 18.9045 38.5496 18.7844 38.7179 18.6139C38.9682 18.3602 39.1091 18.0105 39.1041 17.6546C39.0807 15.8562 38.3627 14.1693 37.0824 12.9044C35.8008 11.6384 34.1027 10.9412 32.3009 10.9412H29.4594C28.672 10.9412 27.9048 11.0752 27.1834 11.3308C26.4609 11.0745 25.6924 10.9412 24.9041 10.9412H22.0624C21.569 10.9412 21.0835 10.9939 20.6121 11.0961V9.65624C20.9539 9.59398 21.2855 9.48015 21.5922 9.31812C21.891 9.16007 22.0052 8.7896 21.8472 8.4907C21.6891 8.19195 21.3189 8.07757 21.0198 8.2357C20.7038 8.40281 20.3605 8.48757 19.9998 8.48757C18.7943 8.48757 17.8135 7.5071 17.8135 6.30187C17.8135 5.09664 18.7943 4.11617 19.9998 4.11617C21.0602 4.11617 21.9465 4.87484 22.1445 5.87773C22.1717 6.01507 22.1863 6.15687 22.1863 6.30187C22.1863 6.64 22.4603 6.91414 22.7985 6.91414C23.1367 6.91414 23.4108 6.64 23.4108 6.30187C23.4108 6.15812 23.4008 6.01679 23.3834 5.87773C23.1739 4.19671 21.737 2.89148 20 2.89148C18.1192 2.89148 16.5891 4.42125 16.5891 6.30171C16.5891 7.97312 17.7984 9.36648 19.3877 9.65585V11.2047C18.7836 11.0319 18.1523 10.941 17.5073 10.941H14.6657C13.8784 10.941 13.1113 11.0751 12.3898 11.3306C11.6673 11.0744 10.8987 10.941 10.1104 10.941H7.26898C5.46695 10.941 3.76883 11.6384 2.48734 12.9043C1.20727 14.169 0.489219 15.8559 0.465625 17.6544C0.460938 18.0105 0.601797 18.3602 0.852031 18.6137C1.10227 18.8672 1.45016 19.0127 1.80641 19.0127H1.89266V20.6709C1.17687 21.048 0.687656 21.7992 0.687656 22.6628C0.687656 22.7776 0.697188 22.8907 0.714453 23.0022C0.280313 23.3378 0 23.8631 0 24.453C0 25.1438 0.384141 25.7464 0.950156 26.0591C0.733984 26.4108 0.608594 26.824 0.608594 27.2662C0.608594 27.8705 0.842109 28.4205 1.22266 28.833C0.893516 29.1639 0.689687 29.6196 0.689687 30.122C0.689687 30.4063 0.755 30.6758 0.87125 30.916C0.713984 31.0048 0.571641 31.1214 0.453828 31.2655C0.172969 31.6094 0.0628125 32.0561 0.151563 32.4909C0.697109 35.1666 3.07617 37.1085 5.80836 37.1085H9.22453C9.56266 37.1085 9.8368 36.8344 9.8368 36.4962C9.8368 36.1581 9.56266 35.884 9.22453 35.884H5.80836C3.65555 35.884 1.78109 34.3541 1.35133 32.246C1.33828 32.0702 1.41922 31.9713 1.59422 31.9491L28.7847 31.9509L31.2864 34.452C31.5553 34.7208 31.9128 34.8687 32.2929 34.8687C32.673 34.8687 33.0304 34.7208 33.2994 34.4519L35.801 31.9509L38.4059 31.9491C38.5601 31.9491 38.6797 32.095 38.6489 32.2461C38.2192 34.354 36.3448 35.884 34.1919 35.884H12.2449C11.9068 35.884 11.6327 36.1581 11.6327 36.4962C11.6327 36.8344 11.9068 37.1085 12.2449 37.1085H34.1917C36.9241 37.1085 39.303 35.1665 39.8485 32.4907C39.9373 32.0558 39.827 31.6091 39.5461 31.2653C39.4284 31.1213 39.2859 31.0048 39.1288 30.916ZM1.80641 17.7881C1.775 17.7881 1.74555 17.7759 1.72352 17.7536C1.7018 17.7316 1.68953 17.7012 1.68992 17.6705C1.7093 16.1958 2.29805 14.8125 3.34789 13.7754C4.39867 12.7373 5.79125 12.1655 7.26898 12.1655H10.1105C11.5881 12.1655 12.9807 12.7373 14.0316 13.7754C14.2722 14.013 14.6598 14.0105 14.8973 13.7702C15.135 13.5296 15.1326 13.142 14.8921 12.9044C14.6293 12.6448 14.3482 12.4105 14.0531 12.1998C14.2552 12.1775 14.4596 12.1655 14.6659 12.1655H17.5074C18.9851 12.1655 20.3776 12.7372 21.4285 13.7753C21.6688 14.0129 22.0566 14.0105 22.2943 13.7701C22.5319 13.5295 22.5295 13.1418 22.289 12.9043C22.0262 12.6447 21.7451 12.4104 21.45 12.1997C21.6522 12.1774 21.8566 12.1654 22.0627 12.1654H24.9044C26.382 12.1654 27.7745 12.7371 28.8254 13.7752C29.0657 14.0128 29.4534 14.0104 29.6912 13.77C29.9288 13.5294 29.9265 13.1419 29.6859 12.9042C29.4231 12.6446 29.142 12.4103 28.8469 12.1996C29.0491 12.1773 29.2534 12.1653 29.4597 12.1653H32.3012C33.7787 12.1653 35.1712 12.737 36.2222 13.7752C37.272 14.8123 37.8608 16.1956 37.8802 17.6704C37.8805 17.7011 37.8684 17.7312 37.8467 17.7533C37.825 17.7753 37.7948 17.7879 37.7638 17.7879H1.80641V17.7881ZM3.64031 21.9162C3.87602 22.1379 4.24344 22.1379 4.47906 21.9163C4.67094 21.736 4.92008 21.6367 5.18086 21.6367C5.4418 21.6367 5.69102 21.736 5.88266 21.9162C6.11836 22.1379 6.4857 22.1379 6.72141 21.9163C6.91328 21.736 7.1625 21.6367 7.4232 21.6367C7.68398 21.6367 7.93336 21.736 8.125 21.9163C8.3607 22.1379 8.72812 22.138 8.96375 21.9164C9.15563 21.7361 9.40484 21.6368 9.66562 21.6368C9.92648 21.6368 10.1757 21.7361 10.3674 21.9164C10.6031 22.138 10.9705 22.138 11.2062 21.9165C11.398 21.7362 11.6472 21.6369 11.908 21.6369C12.1687 21.6369 12.4181 21.7362 12.6098 21.9165C12.8455 22.138 13.213 22.1381 13.4486 21.9166C13.6405 21.7362 13.8896 21.6369 14.1504 21.6369C14.4113 21.6369 14.6605 21.7362 14.8522 21.9165C15.0878 22.1381 15.4552 22.1381 15.6909 21.9166C15.8828 21.7362 16.132 21.6369 16.3927 21.6369C16.6535 21.6369 16.9028 21.7362 17.0945 21.9165C17.3302 22.1381 17.6975 22.1381 17.9331 21.9166C18.1251 21.7363 18.3744 21.6369 18.6351 21.6369C18.8959 21.6369 19.1452 21.7362 19.3368 21.9165C19.5724 22.1381 19.9399 22.1381 20.1755 21.9166C20.3674 21.7362 20.6166 21.6369 20.8774 21.6369C21.1382 21.6369 21.3876 21.7362 21.5793 21.9166C21.815 22.1382 22.1824 22.1381 22.418 21.9166C22.6098 21.7363 22.8591 21.637 23.1198 21.637C23.3806 21.637 23.6301 21.7363 23.8219 21.9166C24.0576 22.1383 24.425 22.1382 24.6605 21.9166C24.8523 21.7363 25.1014 21.6369 25.3623 21.6369C25.623 21.6369 25.8724 21.7362 26.0642 21.9166C26.2999 22.1382 26.6673 22.1381 26.9029 21.9165C27.0946 21.7362 27.3439 21.6369 27.6048 21.6369C27.8655 21.6369 28.1148 21.7362 28.3066 21.9165C28.5423 22.138 28.9097 22.138 29.1452 21.9165C29.3371 21.7362 29.5863 21.6369 29.8471 21.6369C30.1079 21.6369 30.3573 21.7362 30.5491 21.9165C30.7848 22.1381 31.1522 22.138 31.3877 21.9164C31.5795 21.7362 31.8286 21.6368 32.0895 21.6368C32.3503 21.6368 32.5997 21.7361 32.7915 21.9164C33.0272 22.138 33.3945 22.138 33.6301 21.9164C33.822 21.7361 34.0712 21.6368 34.332 21.6368C34.5927 21.6368 34.842 21.7362 35.0339 21.9165C35.2698 22.138 35.637 22.138 35.8725 21.9164C36.0644 21.7361 36.3136 21.6368 36.5744 21.6368C37.1255 21.6368 37.5755 22.0737 37.5985 22.6192H1.9143C1.93742 22.0737 2.38719 21.6368 2.93844 21.6368C3.19937 21.6366 3.44867 21.736 3.64031 21.9162ZM3.11711 20.42V19.0126H36.8829V20.4337C36.7821 20.4199 36.6794 20.4121 36.5748 20.4121C36.1772 20.4121 35.7923 20.5166 35.4537 20.7121C35.1151 20.5165 34.7301 20.4121 34.3324 20.4121C33.9348 20.4121 33.5498 20.5165 33.2113 20.7121C32.8727 20.5165 32.4877 20.4121 32.09 20.4121C31.6923 20.4121 31.3073 20.5165 30.9688 20.7121C30.6302 20.5165 30.2453 20.4121 29.8476 20.4121C29.4499 20.4121 29.065 20.5165 28.7264 20.7121C28.3879 20.5165 28.0029 20.4121 27.6052 20.4121C27.2075 20.4121 26.8226 20.5165 26.484 20.7121C26.1454 20.5165 25.7605 20.4121 25.3628 20.4121C24.9651 20.4121 24.5802 20.5165 24.2416 20.7121C23.903 20.5165 23.518 20.4121 23.1203 20.4121C22.7227 20.4121 22.3377 20.5165 21.9991 20.7121C21.6606 20.5165 21.2756 20.4121 20.8779 20.4121C20.4802 20.4121 20.0954 20.5165 19.7567 20.7121C19.4182 20.5165 19.0333 20.4121 18.6355 20.4121C18.2378 20.4121 17.853 20.5165 17.5143 20.7121C17.1758 20.5165 16.7908 20.4121 16.393 20.4121C15.9953 20.4121 15.6105 20.5165 15.2719 20.7121C14.9333 20.5165 14.5484 20.4121 14.1505 20.4121C13.7528 20.4121 13.368 20.5166 13.0294 20.7121C12.6908 20.5165 12.3059 20.4121 11.9081 20.4121C11.5104 20.4121 11.1255 20.5165 10.787 20.7121C10.4484 20.5165 10.0635 20.4121 9.66578 20.4121C9.26805 20.4121 8.88313 20.5165 8.54453 20.7121C8.20602 20.5165 7.82102 20.4121 7.42328 20.4121C7.02555 20.4121 6.64078 20.5165 6.30211 20.7121C5.96359 20.5165 5.57859 20.4121 5.18078 20.4121C4.78305 20.4121 4.3982 20.5165 4.05961 20.7121C3.77219 20.546 3.45102 20.4466 3.11711 20.42ZM11.9225 28.2933H2.56008C2.13711 28.1429 1.83297 27.7399 1.83297 27.2662C1.83297 26.6647 2.3225 26.1753 2.92422 26.1753H11.9559C11.7811 26.5005 11.6813 26.8718 11.6813 27.2662C11.6814 27.635 11.7685 27.9836 11.9225 28.2933ZM37.4813 30.7262H35.5473C35.385 30.7262 35.2292 30.7908 35.1145 30.9055L32.4336 33.5858C32.3584 33.661 32.2271 33.6609 32.152 33.5859L29.4711 30.9055C29.3563 30.7908 29.2005 30.7262 29.0382 30.7262H2.51867C2.18531 30.7262 1.91406 30.4552 1.91406 30.122C1.91406 29.7889 2.18523 29.5178 2.51867 29.5178H37.4812C37.8145 29.5178 38.0858 29.7888 38.0858 30.122C38.0859 30.4552 37.8146 30.7262 37.4813 30.7262ZM12.9059 27.2662C12.9059 26.6648 13.3954 26.1754 13.9971 26.1754H26.0028C26.6045 26.1754 27.0941 26.6648 27.0941 27.2662C27.0941 27.74 26.7899 28.143 26.367 28.2934H13.6329C13.21 28.143 12.9059 27.7399 12.9059 27.2662ZM37.44 28.2933H28.0776C28.2316 27.9836 28.3188 27.635 28.3188 27.2662C28.3188 26.8718 28.219 26.5005 28.0442 26.1753H37.0759C37.6776 26.1753 38.167 26.6647 38.167 27.2662C38.167 27.7399 37.8627 28.143 37.44 28.2933ZM38.1659 25.0623H1.83422C1.49805 25.0623 1.22453 24.789 1.22453 24.453C1.22453 24.117 1.49805 23.8437 1.83422 23.8437H38.1659C38.502 23.8437 38.7755 24.117 38.7755 24.453C38.7755 24.789 38.502 25.0623 38.1659 25.0623Z" fill="#464646"/>
</g>
<defs>
<clipPath id="clip0_122_4396">
<rect width="40" height="40" fill="white"/>
</clipPath>
</defs>
</svg>
