<svg width="40" height="40" viewBox="0 0 40 40" fill="none" xmlns="http://www.w3.org/2000/svg">
<g clip-path="url(#clip0_122_4656)">
<path d="M13.9889 28.3367H13.4638C13.4292 27.0702 12.3955 26.0506 11.129 26.0506H10.308L8.7993 24.5288C8.5532 24.2806 8.22563 24.1439 7.87703 24.1439C7.52836 24.1439 7.20086 24.2806 6.95469 24.5288L5.44578 26.0506H4.62508C3.35844 26.0506 2.32484 27.0703 2.29023 28.3367H1.76516C0.791797 28.3367 0 29.133 0 30.1117V30.3445C0 31.1917 0.593281 31.9016 1.38391 32.0774V33.7176C1.38391 34.6964 2.1757 35.4927 3.14906 35.4927H12.6051C13.5784 35.4927 14.3702 34.6964 14.3702 33.7176V32.0774C15.1608 31.9017 15.7541 31.1917 15.7541 30.3445V30.1117C15.754 29.133 14.9621 28.3367 13.9889 28.3367ZM4.62508 27.2745H7.12305C7.46102 27.2745 7.73508 27.0006 7.73508 26.6625C7.73508 26.3394 7.48453 26.0756 7.16727 26.0528L7.82383 25.3906C7.85375 25.3603 7.90055 25.3605 7.93039 25.3905L9.61859 27.0935C9.73352 27.2094 9.88992 27.2746 10.0532 27.2746H11.1291C11.7209 27.2746 12.2048 27.7456 12.2384 28.3368H3.51578C3.54937 27.7455 4.03328 27.2745 4.62508 27.2745ZM14.53 30.3445C14.53 30.6484 14.2873 30.8956 13.9888 30.8956H11.8313C11.4933 30.8956 11.2192 31.1695 11.2192 31.5076C11.2192 31.8456 11.4933 32.1196 11.8313 32.1196H13.1462V33.7176C13.1462 34.0216 12.9033 34.2688 12.6049 34.2688H3.14898C2.85063 34.2688 2.60781 34.0216 2.60781 33.7176V32.1195H8.89383C9.2318 32.1195 9.50586 31.8455 9.50586 31.5075C9.50586 31.1695 9.23188 30.8956 8.89383 30.8956H1.76516C1.46672 30.8956 1.22391 30.6483 1.22391 30.3444V30.1117C1.22391 29.8077 1.46664 29.5606 1.76516 29.5606H13.9889C14.2873 29.5606 14.5301 29.8077 14.5301 30.1117V30.3445H14.53Z" fill="#464646"/>
<path d="M39.6098 14.1134C39.2788 13.7115 38.7883 13.481 38.264 13.481H37.869V10.4254C37.869 9.80053 37.3564 9.29217 36.7263 9.29217H35.0033V7.98311C35.0033 7.35826 34.4907 6.8499 33.8606 6.8499H31.9253V6.31482C31.9253 5.68998 31.4127 5.18162 30.7825 5.18162H28.6596C28.2086 5.18162 27.819 5.44272 27.6333 5.8199H25.7689V5.64061C25.7689 5.01568 25.2563 4.50732 24.6262 4.50732H22.5033C21.8732 4.50732 21.3607 5.01576 21.3607 5.64061V6.84982H19.4252C18.7951 6.84982 18.2826 7.35826 18.2826 7.98303V9.29209H16.5593C15.9293 9.29209 15.4167 9.80053 15.4167 10.4253V13.4809H15.0582C14.5403 13.4809 14.0365 13.7183 13.7104 14.1158C13.3763 14.523 13.2497 15.0504 13.3629 15.5629L17.4727 34.1435C17.6457 34.9251 18.3587 35.4925 19.1683 35.4925H34.2264C35.039 35.4925 35.7525 34.9226 35.9229 34.1374L38.5593 22.0065C38.6311 21.6762 38.4215 21.3503 38.0913 21.2786C37.7607 21.2072 37.4351 21.4164 37.3633 21.7465L36.5163 25.6441H31.2352C30.4536 23.8812 28.6983 22.649 26.6613 22.649C24.6245 22.649 22.869 23.8813 22.0874 25.6441H16.8464L14.5579 15.2984C14.5258 15.153 14.5608 15.0087 14.6565 14.8919C14.7513 14.7763 14.9052 14.7047 15.0582 14.7047H18.6433C18.6628 14.7047 18.6793 14.7214 18.6816 14.7436C18.8755 16.5638 19.7195 18.2737 21.0583 19.5584C22.5654 21.0047 24.5553 21.8013 26.6611 21.8013C28.767 21.8013 30.7568 21.0047 32.264 19.5584C33.6027 18.274 34.4469 16.564 34.6408 14.7436C34.6432 14.7215 34.6596 14.7047 34.6792 14.7047H38.2641C38.4214 14.7047 38.5675 14.7726 38.6652 14.8913C38.761 15.0076 38.7964 15.1515 38.765 15.2966L37.8419 19.5435C37.7702 19.8738 37.9797 20.1997 38.31 20.2714C38.6408 20.3428 38.9662 20.1336 39.0379 19.8034L39.961 15.5564C40.0719 15.0449 39.9439 14.5189 39.6098 14.1134ZM31.6004 26.8683H36.2501L35.7965 28.955H31.5102C31.6146 28.5457 31.6687 28.1227 31.6687 27.6946C31.6687 27.413 31.6447 27.1373 31.6004 26.8683ZM22.305 30.1788C23.1197 31.6232 24.6205 32.6255 26.358 32.7305V32.7372C26.4533 32.7427 26.5492 32.7462 26.6458 32.7462C27.2029 32.7462 27.7501 32.6547 28.2725 32.474C28.592 32.3635 28.7615 32.0148 28.651 31.6953C28.5405 31.3758 28.1922 31.2061 27.8723 31.3168C27.6454 31.3952 27.4119 31.4506 27.1743 31.484V31.4803C27.0047 31.5037 26.8333 31.5163 26.6611 31.5163C24.5746 31.5163 22.8772 29.8019 22.8772 27.6945C22.8772 25.5873 24.5747 23.873 26.6611 23.873C28.7475 23.873 30.4448 25.5873 30.4448 27.6945C30.4448 28.4113 30.2474 29.1098 29.8739 29.7146C29.6962 30.002 29.7853 30.3793 30.0729 30.5568C30.3604 30.7343 30.7375 30.6453 30.9151 30.3576C30.9515 30.2987 30.9862 30.2389 31.0201 30.1787H35.5307L34.7268 33.8776C34.6783 34.1005 34.4632 34.2686 34.2262 34.2686H19.1681C18.9318 34.2686 18.7168 34.1012 18.6676 33.8791L17.8492 30.1788H22.305ZM21.7217 26.8683C21.6775 27.1373 21.6533 27.4131 21.6533 27.6945C21.6533 28.1295 21.7083 28.5519 21.8115 28.9549H17.5785L17.1169 26.8682H21.7217V26.8683ZM16.6405 11.2354V10.5162H18.2825V11.1228H17.1402C16.9614 11.1227 16.7923 11.1639 16.6405 11.2354ZM19.3197 13.6782C19.1235 13.5532 18.8914 13.481 18.6432 13.481H17.194V12.3467H19.3197V13.6782ZM19.5065 10.5559V8.07381H21.3606V10.026H20.4858C20.0751 10.0259 19.7149 10.2376 19.5065 10.5559ZM22.6651 19.3059C22.3989 19.1156 22.1451 18.9052 21.9056 18.6755C21.3402 18.133 20.8794 17.5012 20.5395 16.8133V11.2498H22.6651V19.3059ZM22.7188 10.0259H22.5844V5.73131H24.5449V11.6903H23.889V11.1862C23.889 10.5465 23.3641 10.0259 22.7188 10.0259ZM26.0437 20.5494C25.3033 20.4843 24.5872 20.3015 23.9179 20.0119V12.9142H26.0437V20.5494ZM26.2021 11.6904H25.7688V7.04389H27.6231V11.0354H27.2538C26.7914 11.0355 26.392 11.3034 26.2021 11.6904ZM29.4332 19.9996C28.7643 20.2926 28.0483 20.4792 27.3075 20.5475V12.2594H29.4332V19.9996ZM29.4426 11.0355H28.8469V6.95334C28.8469 6.78404 28.8082 6.62381 28.7408 6.47928V6.40561H30.7011V10.026H30.6018C30.0083 10.0259 29.5176 10.4668 29.4426 11.0355ZM32.7813 16.8162C32.4415 17.503 31.981 18.1339 31.4164 18.6756C31.1765 18.9058 30.9222 19.1165 30.6554 19.307V11.2499H32.7812V16.8162H32.7813ZM33.7793 10.5037C33.5666 10.2144 33.2229 10.0259 32.8351 10.0259H31.9252V8.07373H33.7793V10.5037H33.7793ZM36.1283 13.481H34.6791C34.4308 13.481 34.1986 13.5533 34.0026 13.6783V12.3467H36.1283V13.481ZM35.0031 11.1227V10.5161H36.645V11.2179C36.5027 11.1569 36.3461 11.1227 36.1816 11.1227H35.0031Z" fill="#464646"/>
</g>
<defs>
<clipPath id="clip0_122_4656">
<rect width="40" height="40" fill="white"/>
</clipPath>
</defs>
</svg>
