<svg width="40" height="40" viewBox="0 0 40 40" fill="none" xmlns="http://www.w3.org/2000/svg">
<g clip-path="url(#clip0_122_4606)">
<path d="M6.12213 16.1097H6.04049C5.70229 16.1097 5.42822 16.3838 5.42822 16.722C5.42822 17.0602 5.70229 17.3343 6.04049 17.3343H6.12213C6.46026 17.3343 6.73447 17.0602 6.73447 16.722C6.73447 16.3838 6.46026 16.1097 6.12213 16.1097Z" fill="#464646"/>
<path d="M12.3264 13.579H12.2447C11.9065 13.579 11.6324 13.853 11.6324 14.1912C11.6324 14.5294 11.9065 14.8035 12.2447 14.8035H12.3264C12.6645 14.8035 12.9386 14.5294 12.9386 14.1912C12.9386 13.853 12.6644 13.579 12.3264 13.579Z" fill="#464646"/>
<path d="M7.34657 9.66052H7.26493C6.92673 9.66052 6.65259 9.93459 6.65259 10.2728C6.65267 10.6109 6.92681 10.8851 7.26493 10.8851H7.34657C7.6847 10.8851 7.95884 10.611 7.95884 10.2728C7.95884 9.93459 7.6847 9.66052 7.34657 9.66052Z" fill="#464646"/>
<path d="M14.4489 8.51758H14.3673C14.0291 8.51758 13.755 8.79164 13.755 9.12984C13.755 9.46805 14.0291 9.74219 14.3673 9.74219H14.4489C14.787 9.74219 15.0612 9.46813 15.0612 9.12984C15.0611 8.79164 14.787 8.51758 14.4489 8.51758Z" fill="#464646"/>
<path d="M25.7145 9.90552H25.6329C25.2946 9.90552 25.0205 10.1796 25.0205 10.5178C25.0206 10.8559 25.2946 11.1301 25.6329 11.1301H25.7145C26.0526 11.1301 26.3268 10.856 26.3268 10.5178C26.3267 10.1795 26.0526 9.90552 25.7145 9.90552Z" fill="#464646"/>
<path d="M26.286 15.8647H26.2043C25.8661 15.8647 25.592 16.1388 25.592 16.477C25.592 16.8152 25.8661 17.0893 26.2043 17.0893H26.286C26.6241 17.0893 26.8982 16.8152 26.8982 16.477C26.8982 16.1388 26.6241 15.8647 26.286 15.8647Z" fill="#464646"/>
<path d="M19.5101 4.02771H19.4285C19.0903 4.02771 18.8162 4.30177 18.8162 4.63998C18.8162 4.9781 19.0903 5.25224 19.4285 5.25224H19.5101C19.8483 5.25224 20.1224 4.9781 20.1224 4.63998C20.1224 4.30177 19.8483 4.02771 19.5101 4.02771Z" fill="#464646"/>
<path d="M39.7675 30.2752C39.5493 29.9831 39.202 29.8087 38.8387 29.8087H37.4877L37.5973 28.9507H37.6185C38.4143 28.9507 39.0618 28.303 39.0618 27.5067C39.0618 26.7601 38.4927 26.1443 37.7658 26.0702C37.5175 25.1609 36.8152 24.4397 35.9006 24.1752C35.6914 23.2606 34.8741 22.5752 33.8989 22.5692C33.8189 21.7511 33.5487 21.0787 33.116 20.6391C32.7957 20.3137 32.4025 20.1344 32.0091 20.1344C31.3915 20.1344 30.7665 20.6071 30.7665 21.5108C30.7665 21.9377 30.5378 22.303 30.297 22.5691H29.8676V22.1715C29.8676 21.0321 28.9489 20.1052 27.8196 20.1052H23.4166L21.3664 18.0289L23.6101 15.8093C23.9399 15.4832 24.1215 15.0492 24.1215 14.5876C24.1215 14.1277 23.941 13.6961 23.6134 13.3719L21.7697 11.5478C21.0966 10.882 19.9999 10.8835 19.3248 11.5512L18.2632 12.6016C18.0229 12.8395 18.0208 13.2271 18.2585 13.4674C18.4964 13.7079 18.884 13.7098 19.1243 13.4722L20.1859 12.4218C20.386 12.2239 20.7101 12.2223 20.9084 12.4184L21.0133 12.5222L16.192 17.2918C16.0318 17.4503 16.0304 17.7087 16.1889 17.869C16.2687 17.9496 16.3739 17.9901 16.4791 17.9901C16.5828 17.9901 16.6866 17.9507 16.7662 17.8721L21.5938 13.0962L22.0577 13.5551L18.5039 17.0709C18.4017 17.1376 18.3052 17.2148 18.2172 17.3039L16.3948 19.1494C16.1294 19.4183 15.9719 19.7548 15.9189 20.1051H14.5091L14.9846 19.6346C15.1448 19.4761 15.1462 19.2176 14.9876 19.0574C14.8292 18.8972 14.5708 18.8959 14.4105 19.0543L13.3483 20.1051H12.4196L17.4102 15.168C17.6505 14.9301 17.6526 14.5425 17.4148 14.3022C17.177 14.0617 16.7894 14.0597 16.5491 14.2974L10.6786 20.1051H6.0906C4.9613 20.1051 4.04255 21.032 4.04255 22.1713V24.1101C4.04255 24.3865 4.097 24.6501 4.19505 24.8913H3.88435C2.75505 24.8913 1.83629 25.8183 1.83629 26.9577V28.8963C1.83629 29.2236 1.9127 29.5331 2.04754 29.8084H1.16129C0.798011 29.8084 0.450822 29.9828 0.232462 30.2751C0.0163683 30.5644 -0.0544912 30.9449 0.0427746 31.2934L0.805354 34.0254C0.901136 35.1229 1.80715 35.9723 2.89864 35.9723H21.3061C21.6442 35.9723 21.9184 35.6982 21.9184 35.36C21.9184 35.0218 21.6442 34.7477 21.3061 34.7477H2.89864C2.4338 34.7477 2.04911 34.3697 2.02293 33.887C2.02059 33.8424 2.01333 33.7984 2.00129 33.7556L1.24137 31.0331H25.1222L25.597 34.7478H24.4082C24.0701 34.7478 23.7959 35.0219 23.7959 35.3601C23.7959 35.6983 24.0701 35.9724 24.4082 35.9724H26.715H27.1838H37.1014C38.1929 35.9724 39.0989 35.1231 39.1946 34.0255L39.9572 31.2935C40.0547 30.9451 39.9837 30.5645 39.7675 30.2752ZM30.5523 23.7937C30.7074 23.7938 30.8566 23.7349 30.97 23.6291C31.6381 23.0057 31.9912 22.2734 31.9912 21.5109C31.9912 21.429 32.0063 21.3803 32.0165 21.3594C32.0564 21.3629 32.142 21.395 32.2435 21.4982C32.3862 21.6431 32.716 22.0962 32.6991 23.1718C32.6965 23.3358 32.7598 23.494 32.875 23.611C32.9901 23.7279 33.1473 23.7938 33.3113 23.7938H33.8862C34.3472 23.7938 34.7228 24.1666 34.7282 24.627C34.7273 24.6401 34.7264 24.653 34.726 24.666C34.7141 24.99 34.9567 25.267 35.2793 25.2981C35.7892 25.3472 36.2157 25.6434 36.4486 26.0626H26.0052C26.238 25.6434 26.6645 25.3472 27.1745 25.2981C27.1914 25.2964 27.3308 25.2938 27.3472 25.2909H29.1077C29.4458 25.2909 29.7199 25.0168 29.7199 24.6786C29.7199 24.3403 29.4458 24.0663 29.1077 24.0663H27.9494C28.1034 23.8991 28.3232 23.7936 28.5676 23.7936H30.5523V23.7937ZM26.0876 22.8102H27.6027C27.3056 22.968 27.0516 23.1959 26.8625 23.472H26.7411L26.0876 22.8102ZM27.8196 21.3299C28.2139 21.3299 28.5441 21.6149 28.6243 21.9938H25.2814L24.6258 21.3299H27.8196ZM22.6381 14.1299L22.7524 14.2428C22.8457 14.3351 22.8971 14.4576 22.8971 14.588C22.8971 14.7199 22.8445 14.8446 22.7491 14.939L20.4962 17.1678C20.313 17.0221 20.1047 16.9172 19.8823 16.8565L22.6381 14.1299ZM6.0906 21.3299H16.1838C16.2455 21.4237 16.3167 21.5125 16.3982 21.5952L16.792 21.9938H5.28591C5.36607 21.6149 5.6963 21.3299 6.0906 21.3299ZM5.26708 22.8102H17.598L18.2516 23.472H5.26708V22.8102ZM19.0577 24.2884L19.6534 24.8917H5.78552C5.5345 24.7888 5.34435 24.5636 5.28607 24.2884H19.0577ZM3.88435 29.7385C3.48997 29.7385 3.15989 29.4536 3.07966 29.0747H15.3062C15.5316 29.0747 15.7143 28.892 15.7143 28.6666C15.7143 28.4411 15.5315 28.2584 15.3062 28.2584H3.06083V27.5965H15.2192C15.4446 27.5965 15.6273 27.4138 15.6273 27.1884C15.6273 26.963 15.4445 26.7802 15.2192 26.7802H3.07981C3.15997 26.4013 3.49013 26.1164 3.88442 26.1164H20.8627L21.5183 26.7802H18.311C18.0855 26.7802 17.9029 26.963 17.9029 27.1884C17.9029 27.4138 18.0856 27.5965 18.311 27.5965H22.3244L22.9781 28.2584H18.3708C18.1453 28.2584 17.9627 28.4412 17.9627 28.6666C17.9627 28.892 18.1454 29.0747 18.3708 29.0747H23.7842L24.4397 29.7385H3.88435ZM24.6252 26.0926L24.4756 25.9411C24.3171 25.7806 24.0587 25.7791 23.8984 25.9374C23.7442 26.0897 23.7383 26.3334 23.8786 26.4945C23.7199 26.6553 23.5983 26.8528 23.5285 27.0734L17.2696 20.7348C17.0714 20.5341 17.0699 20.2091 17.2662 20.0101L17.3691 19.9059L22.1338 24.731C22.2136 24.812 22.319 24.8525 22.4243 24.8525C22.5279 24.8525 22.6316 24.8133 22.7111 24.7347C22.8715 24.5763 22.8731 24.318 22.7148 24.1576L17.9428 19.3251L18.4013 18.8609L23.1323 23.6518C23.2121 23.7326 23.3174 23.7731 23.4227 23.7731C23.5263 23.7731 23.63 23.7339 23.7095 23.6554C23.8699 23.497 23.8716 23.2387 23.7132 23.0782L18.9751 18.28L19.0888 18.1649C19.1809 18.0717 19.3031 18.0205 19.4328 18.0205C19.5643 18.0205 19.6887 18.073 19.7827 18.1683L25.9625 24.4264C25.7676 24.5376 25.5883 24.6719 25.4281 24.8256C25.2697 24.715 25.0506 24.729 24.9083 24.8696C24.7479 25.0281 24.7463 25.2865 24.9047 25.4468L24.9304 25.4728C24.8253 25.663 24.742 25.8668 24.6845 26.0813C24.6645 26.0843 24.6449 26.0887 24.6252 26.0926ZM24.9041 27.7263C24.7834 27.7263 24.6853 27.6278 24.6853 27.5067C24.6853 27.3857 24.7834 27.2873 24.9041 27.2873H37.6186C37.7392 27.2873 37.8373 27.3857 37.8373 27.5067C37.8373 27.6278 37.7392 27.7263 37.6186 27.7263H24.9041ZM35.6219 34.7479H26.8317L26.0906 28.9508H36.3628L35.6219 34.7479ZM37.9987 33.7557C37.9867 33.7987 37.9794 33.8428 37.977 33.8872C37.9509 34.3699 37.5662 34.7478 37.1014 34.7478H36.8563L37.3311 31.0332H38.7586L37.9987 33.7557Z" fill="#464646"/>
</g>
<defs>
<clipPath id="clip0_122_4606">
<rect width="40" height="40" fill="white"/>
</clipPath>
</defs>
</svg>
