<svg width="40" height="40" viewBox="0 0 40 40" fill="none" xmlns="http://www.w3.org/2000/svg">
<g clip-path="url(#clip0_122_4439)">
<path d="M24.6835 7.21655C23.2376 7.21655 22.0612 8.38827 22.0612 9.82874C22.0612 11.2691 23.2376 12.4409 24.6835 12.4409C26.1294 12.4409 27.3059 11.2691 27.3059 9.82874C27.3059 8.38835 26.1295 7.21655 24.6835 7.21655ZM24.6835 11.2163C23.9127 11.2163 23.2856 10.5939 23.2856 9.82874C23.2857 9.06359 23.9127 8.44109 24.6835 8.44109C25.4543 8.44109 26.0815 9.06359 26.0815 9.82874C26.0815 10.5939 25.4544 11.2163 24.6835 11.2163Z" fill="#464646"/>
<path d="M29.6591 1.5893L28.4493 0.38586C28.1992 0.137032 27.8669 0 27.5136 0C27.1603 0 26.828 0.137032 26.5778 0.38586L25.3681 1.5893C25.1172 1.83899 24.979 2.17125 24.979 2.52485C24.979 2.87829 25.1172 3.21048 25.3682 3.46024L26.5779 4.66392C26.8281 4.91259 27.1603 5.04954 27.5137 5.04954C27.8671 5.04954 28.1993 4.91259 28.4495 4.66376L29.6592 3.46024C29.91 3.21048 30.0482 2.87829 30.0482 2.52493C30.0482 2.17141 29.91 1.8393 29.6591 1.5893ZM28.7953 2.59227L27.5858 3.79563C27.5614 3.81993 27.5331 3.82501 27.5136 3.82501C27.4941 3.82501 27.4658 3.81985 27.4414 3.79571L26.2319 2.59227C26.2084 2.56891 26.2035 2.54274 26.2035 2.52485C26.2035 2.50688 26.2085 2.48071 26.2318 2.45735L27.4413 1.25407C27.4657 1.22969 27.4941 1.22461 27.5135 1.22461C27.533 1.22461 27.5613 1.22977 27.5858 1.25407L28.7953 2.45727C28.8188 2.48063 28.8237 2.50688 28.8237 2.52485C28.8236 2.54266 28.8186 2.56899 28.7953 2.59227Z" fill="#464646"/>
<path d="M8.64953 10.6754L7.67195 9.70303C7.44766 9.47982 7.14969 9.35693 6.83289 9.35693C6.51609 9.35693 6.21804 9.4799 5.99375 9.70295L5.01609 10.6754C4.79085 10.8994 4.66687 11.1976 4.66687 11.5149C4.66687 11.8321 4.79093 12.1301 5.01601 12.354L5.99383 13.3268C6.21812 13.5498 6.51609 13.6726 6.83289 13.6726C7.14969 13.6726 7.44773 13.5497 7.67188 13.3266L8.64938 12.3541C8.87461 12.1301 8.9986 11.832 8.99868 11.5148C8.99875 11.1976 8.87477 10.8995 8.64953 10.6754ZM6.83273 12.4344L5.90859 11.5148L6.83281 10.5954L7.75695 11.5148L6.83273 12.4344Z" fill="#464646"/>
<path d="M34.0979 12.5099L33.1203 11.5375C32.8961 11.3143 32.598 11.1914 32.2811 11.1914C31.9643 11.1914 31.6663 11.3144 31.4419 11.5374L30.4643 12.5099C30.2391 12.734 30.1151 13.032 30.1151 13.3494C30.1152 13.6666 30.2392 13.9646 30.4643 14.1884L31.4421 15.1613C31.6665 15.3845 31.9645 15.5071 32.2811 15.5071C32.598 15.5071 32.896 15.3841 33.1202 15.1611L34.0977 14.1886C34.3229 13.9646 34.4469 13.6666 34.447 13.3493C34.4471 13.0321 34.3231 12.7341 34.0979 12.5099ZM32.2812 14.2689L31.3571 13.3494L32.2812 12.4299L33.2054 13.3494L32.2812 14.2689Z" fill="#464646"/>
<path d="M13.4984 20.5079L13.4142 20.4641C13.114 20.3082 12.7445 20.4251 12.5886 20.7251C12.4327 21.0251 12.5496 21.3947 12.8496 21.5507L12.9338 21.5944C13.0241 21.6413 13.1206 21.6636 13.2156 21.6636C13.4369 21.6636 13.6504 21.5433 13.7594 21.3334C13.9154 21.0334 13.7985 20.6638 13.4984 20.5079Z" fill="#464646"/>
<path d="M19.7417 6.81614C19.7417 5.53708 19.2423 4.3359 18.3358 3.43387C17.7264 2.82738 16.7347 2.82738 16.1251 3.43387L13.795 5.75215C13.5553 5.99059 13.5544 6.37825 13.7928 6.61794C14.0312 6.85763 14.4189 6.85848 14.6587 6.62005L16.9886 4.30184C17.1219 4.16918 17.3388 4.16918 17.472 4.30184C17.582 4.41121 17.683 4.52707 17.7765 4.64746C17.4005 4.74778 17.1451 5.19004 17.3084 5.55551C17.3988 5.75762 17.5972 5.89794 17.8178 5.91575C18.0244 5.93239 18.1956 5.84262 18.3381 5.70075C18.4552 6.05583 18.5171 6.43098 18.5171 6.81598C18.5171 7.76669 18.146 8.65958 17.4721 9.33005C16.4986 10.2986 15.0995 10.5908 13.8684 10.2084C14.1111 9.90287 13.9882 9.50615 13.703 9.28271C13.3602 9.01404 12.8361 9.18435 12.7284 9.61107C12.6178 9.52451 12.5108 9.43146 12.4088 9.33013C12.3453 9.26693 12.3103 9.18302 12.3103 9.09404C12.3104 9.00505 12.3453 8.92138 12.4088 8.85818L12.9443 8.32552C13.184 8.087 13.185 7.69935 12.9465 7.45958C12.708 7.21989 12.3204 7.21903 12.0806 7.45739L11.5451 7.99005C11.249 8.28466 11.0858 8.67669 11.0857 9.0938C11.0856 9.51107 11.2488 9.90318 11.5451 10.1979C12.481 11.1294 13.7099 11.595 14.9393 11.5952C14.6323 11.5952 14.3263 11.5953 14.9405 11.5952C15.5542 11.5951 15.2486 11.5951 14.9417 11.5952C16.1708 11.5947 17.4001 11.1292 18.3357 10.1983C19.2424 9.29638 19.7418 8.09521 19.7417 6.81614Z" fill="#464646"/>
<path d="M15.7061 8.45621L15.6388 8.38926C15.3989 8.15097 15.0113 8.15215 14.773 8.39183C14.5346 8.63168 14.5358 9.01926 14.7755 9.2577L14.8428 9.32465C14.9623 9.44332 15.1184 9.50262 15.2744 9.50262C15.4317 9.50262 15.589 9.44238 15.7086 9.32199C15.9471 9.08215 15.9459 8.69457 15.7061 8.45621Z" fill="#464646"/>
<path d="M17.3905 6.91576L17.3231 6.84865C17.0836 6.6099 16.6959 6.6106 16.4574 6.85021C16.2187 7.08982 16.2194 7.4774 16.4589 7.71599L16.5263 7.7831C16.6457 7.90217 16.802 7.96162 16.9584 7.96162C17.1154 7.96162 17.2725 7.90162 17.3921 7.78154C17.6307 7.54201 17.6299 7.15435 17.3905 6.91576Z" fill="#464646"/>
<path d="M38.8616 22.6988C39.595 21.3909 39.3782 19.741 38.2937 18.662C37.6525 18.0242 36.8004 17.673 35.8941 17.673C35.3101 17.673 34.745 17.8195 34.2419 18.099C33.7324 17.9216 33.2419 17.832 32.78 17.832C32.6174 17.832 32.4603 17.8441 32.309 17.8667C32.1049 17.1082 31.6449 16.4292 30.9924 15.9603C30.7177 15.763 30.3352 15.8256 30.1379 16.1003C29.9405 16.3749 30.0032 16.7574 30.2778 16.9548C30.7424 17.2887 31.0565 17.7867 31.1637 18.3364C31.0899 18.3932 31.0192 18.4541 30.9529 18.5201C30.5838 18.8873 30.3613 19.3721 30.2888 19.9324C29.9315 19.775 29.5231 19.6938 29.0763 19.6938C28.9366 19.6938 28.7939 19.7017 28.6485 19.7173C28.7505 18.7599 28.5081 17.933 27.9411 17.3688C27.8195 17.2479 27.6856 17.1416 27.5406 17.0502C27.9283 16.7289 28.4262 16.5349 28.9693 16.5349C29.3074 16.5349 29.5816 16.2609 29.5816 15.9227C29.5816 15.5845 29.3074 15.3104 28.9693 15.3104C27.8572 15.3104 26.8661 15.8356 26.2327 16.65C26.1592 16.6453 26.0849 16.6423 26.0091 16.6423C25.8694 16.6423 25.7268 16.6502 25.5815 16.6658C25.6835 15.7083 25.4412 14.8814 24.874 14.3173C24.3963 13.8421 23.7284 13.5909 22.9423 13.5909C22.4452 13.5909 21.9164 13.6888 21.3666 13.8822C20.8281 13.5789 20.222 13.42 19.5952 13.42C18.6332 13.42 17.7286 13.7929 17.0482 14.4699C16.5996 14.9161 16.2916 15.4546 16.128 16.0275L13.2438 13.1583C12.9262 12.8423 12.5042 12.6682 12.0554 12.6682C11.6066 12.6682 11.1847 12.8423 10.8672 13.1581C9.96076 14.0599 9.42365 15.2319 9.3274 16.4933C8.93958 16.2735 8.47669 16.1591 7.9606 16.1591C7.49099 16.1591 6.99224 16.2513 6.47435 16.4337C5.96333 16.1463 5.38919 15.9957 4.79551 15.9957C3.87582 15.9957 3.01145 16.3556 2.36145 17.0089C1.26308 18.1129 1.04512 19.8021 1.79137 21.1386C1.31769 22.5028 1.46957 23.7401 2.21629 24.4908C2.29324 24.5682 2.37582 24.6389 2.46277 24.7038L1.93027 25.2335C1.64504 25.5172 1.48801 25.8948 1.48801 26.2965C1.48801 26.3307 1.48934 26.3644 1.4916 26.3982C1.34113 26.4849 1.2041 26.5961 1.08808 26.7304C0.78949 27.0761 0.657927 27.5328 0.72699 27.9833C1.14012 30.6842 2.51582 33.1577 4.60067 34.9479C5.85895 36.0283 7.32857 36.8159 8.90208 37.2746C8.82333 37.451 8.77857 37.6458 8.77857 37.8512V38.579C8.77857 39.3625 9.41591 39.9999 10.1992 39.9999H29.3595C30.1429 39.9999 30.7802 39.3624 30.7802 38.579V37.8512C30.7802 37.6458 30.7354 37.4511 30.6567 37.2746C31.3963 37.0594 32.1145 36.7717 32.7969 36.414C33.0964 36.257 33.2119 35.8869 33.0549 35.5874C32.898 35.2879 32.5278 35.1723 32.2284 35.3294C31.1394 35.9002 29.9491 36.2726 28.7292 36.4303H10.8202C8.82271 36.1715 6.93435 35.3379 5.39817 34.0188C4.99809 33.6752 4.62739 33.3033 4.28793 32.9076H8.54982C8.88724 32.9076 9.16076 32.6342 9.16076 32.2967C9.16076 31.9592 8.88724 31.6857 8.54982 31.6857H3.38785C3.06426 31.1709 2.78707 30.6286 2.55957 30.0649H10.642C10.9795 30.0649 11.253 29.7913 11.253 29.4539C11.253 29.1164 10.9795 28.8429 10.642 28.8429H2.15441C2.06426 28.4997 1.99129 28.1512 1.9373 27.798C1.92262 27.7021 1.95082 27.6049 2.01481 27.5308C2.07949 27.4559 2.17387 27.4129 2.27371 27.4129H37.285C37.385 27.4129 37.4793 27.4559 37.5439 27.5308C37.6078 27.6048 37.636 27.7022 37.6214 27.7982C37.2747 30.0645 36.1532 32.1777 34.4632 33.7485C34.2156 33.9786 34.2014 34.3661 34.4316 34.6138C34.6617 34.8612 35.0492 34.8756 35.2969 34.6454C37.1882 32.8875 38.4437 30.5215 38.8318 27.9836C38.9008 27.5329 38.7693 27.0763 38.4708 26.7307C38.3258 26.5628 38.1485 26.4305 37.9525 26.3382C38.1303 26.2388 38.2925 26.1174 38.4363 25.9743C39.1744 25.2399 39.3264 24.0314 38.8616 22.6988ZM10.0029 37.8514C10.0029 37.743 10.0909 37.655 10.1991 37.655H29.3595C29.4677 37.655 29.5556 37.743 29.5556 37.8514V38.5791C29.5556 38.6875 29.4677 38.7755 29.3595 38.7755H10.1991C10.091 38.7755 10.0029 38.6875 10.0029 38.5791V37.8514ZM16.4303 18.8478C16.329 19.1482 16.2573 19.4421 16.2151 19.7263C16.0471 19.7333 15.8837 19.766 15.7298 19.8233C15.6601 19.5826 15.5713 19.3474 15.4655 19.1199C15.8041 19.0878 16.1298 18.995 16.4303 18.8478ZM13.8594 15.498L16.0394 17.6667C15.7891 17.8245 15.4984 17.9088 15.1947 17.9088C14.3785 17.9088 13.6137 17.1572 13.6137 16.3392C13.6139 16.0366 13.6995 15.747 13.8594 15.498ZM11.7308 14.0261C11.8174 13.94 11.9326 13.8926 12.0554 13.8926C12.1783 13.8926 12.2934 13.94 12.3801 14.0262L12.9808 14.6238C12.5978 15.1122 12.3894 15.7095 12.3894 16.3391C12.3894 16.4692 12.3985 16.5979 12.4162 16.7246C11.9109 16.789 11.4676 17.0955 11.2303 17.5574L10.81 18.3753C10.6298 17.9124 10.5348 17.4156 10.5348 16.9037C10.5347 15.8153 10.9594 14.7935 11.7308 14.0261ZM2.73481 26.1886V26.1885C2.74707 26.1598 2.76543 26.1299 2.79379 26.1017L4.31122 24.5921C4.38325 24.5205 4.46754 24.5098 4.51153 24.5098C4.55551 24.5098 4.64004 24.5205 4.71208 24.5921L6.2295 26.1018C6.25786 26.1299 6.2763 26.1599 6.28849 26.1886H2.73481ZM5.91231 24.0588L5.57559 23.7239C5.29114 23.441 4.91325 23.2853 4.51153 23.2853C4.10981 23.2853 3.73192 23.441 3.44762 23.724L3.35184 23.8192C3.25121 23.7679 3.16121 23.7046 3.08434 23.6272C2.64215 23.1826 2.62457 22.3142 3.03731 21.3042C3.11551 21.1127 3.09192 20.8946 2.97426 20.7245C2.36106 19.8369 2.46832 18.6374 3.22934 17.8723C3.64778 17.4517 4.20395 17.22 4.79536 17.22C5.24997 17.22 5.68645 17.357 6.05747 17.6162C6.22856 17.7357 6.4488 17.7598 6.64169 17.68C7.11161 17.486 7.56763 17.3834 7.96044 17.3834C8.387 17.3834 8.71818 17.4988 8.94458 17.7265C9.33107 18.1151 9.3949 18.8338 9.11966 19.6985C9.05013 19.9169 9.10849 20.1559 9.27076 20.3177C9.3913 20.4378 9.55427 20.5002 9.71959 20.4959L8.8281 22.2305C8.70318 22.2355 8.58068 22.2489 8.45943 22.2667L5.40794 19.1991C5.1695 18.9594 4.78192 18.9585 4.54208 19.1968C4.30231 19.4353 4.30137 19.8229 4.53981 20.0626L7.18599 22.7227C6.65013 23.0452 6.20755 23.5068 5.91231 24.0588ZM10.5933 24.7356C10.297 25.0303 10.1338 25.4224 10.1338 25.8396C10.1338 25.9586 10.1483 26.0753 10.1744 26.1884H7.53021C7.50458 25.8275 7.35255 25.4917 7.09317 25.2336L6.84271 24.9843C7.13521 24.0959 7.97693 23.4522 8.96755 23.4522C9.75818 23.4522 10.4525 23.8632 10.8498 24.4803L10.5933 24.7356ZM10.1069 22.4216L12.3192 18.1172C12.4026 17.955 12.6069 17.8898 12.7689 17.9741C12.91 18.0474 13.0437 18.1296 13.1706 18.2185C12.8483 18.4228 12.7343 18.912 12.9856 19.2124C13.2826 19.5674 13.8299 19.4595 14.0204 19.059C14.3658 19.5405 14.5862 20.1006 14.6652 20.6842L12.6155 22.7234C12.4644 22.4681 12.105 22.3177 11.8204 22.4076C11.4448 22.5264 11.2772 22.9844 11.488 23.3184C11.1105 22.9176 10.6383 22.607 10.1069 22.4216ZM14.5847 26.1886C15.2131 25.8907 14.8902 24.9558 14.2537 24.9575C13.5297 24.9593 13.4817 25.9143 14.0602 26.1885H12.9106C12.8772 26.1473 12.8395 26.1092 12.8011 26.0727C12.5612 25.8344 12.1736 25.8356 11.9353 26.0753C11.8533 26.1578 11.8738 26.1675 11.7784 26.1884C11.7344 26.198 11.626 26.2031 11.5827 26.1884C11.3526 26.1103 11.2961 25.7637 11.4571 25.6036L16.0368 21.0472C16.1683 20.9164 16.3887 20.9163 16.5202 21.0472C16.6301 21.1566 16.7312 21.2724 16.8247 21.3928C16.5724 21.46 16.3425 21.7121 16.3086 21.9714C16.2656 22.3003 16.5016 22.6111 16.831 22.6567C16.7001 23.0533 16.6166 23.4669 16.583 23.8909C16.3703 23.2876 15.4019 23.2499 15.3305 23.9667C15.2637 24.6359 16.2662 25.016 16.5651 24.3434C16.5683 24.984 16.6847 25.6066 16.9048 26.1885H14.5847V26.1886ZM18.2458 26.1885C17.948 25.6175 17.7891 24.9799 17.7891 24.3171C17.7891 23.2289 18.2138 22.2069 18.9852 21.4395C19.0717 21.3534 19.1869 21.306 19.3098 21.306C19.4327 21.306 19.5479 21.3534 19.6345 21.4396L20.2352 22.0372C19.8522 22.5256 19.6439 23.1229 19.6439 23.7525C19.6439 24.4994 19.9362 25.2015 20.4667 25.7294C20.65 25.9117 20.8545 26.065 21.0741 26.1884H18.2458V26.1885ZM22.4491 25.3221C22.0262 25.3221 21.6289 25.1585 21.3302 24.8614C21.0323 24.565 20.8683 24.1711 20.8683 23.7525C20.8683 23.45 20.9539 23.1603 21.1138 22.9111L23.2938 25.08C23.0435 25.2378 22.753 25.3221 22.4491 25.3221ZM23.8243 26.1885C23.9459 26.1201 24.0627 26.0425 24.1739 25.9557L24.4079 26.1885H23.8243ZM22.7905 22.8521C23.0155 22.0994 23.7179 21.5486 24.5477 21.5486C25.3282 21.5486 25.9959 22.036 26.2598 22.7201C26.2124 22.7581 26.1663 22.7982 26.1227 22.8417L24.4515 24.5043L22.7905 22.8521ZM29.4527 26.1547L29.4188 26.1885H25.9875C25.9052 26.0048 25.7895 25.8357 25.6422 25.6891L25.3194 25.368L26.9861 23.7097C27.1629 23.5338 27.4593 23.5337 27.6363 23.7096L29.4527 25.5168C29.6274 25.6907 29.6274 25.9808 29.4527 26.1547ZM29.9464 24.2807L28.4999 22.8415C28.2105 22.5537 27.834 22.3853 27.4301 22.3573C27.0104 21.1743 25.8775 20.3241 24.5478 20.3241C24.3156 20.3241 24.0896 20.3506 23.8722 20.3996L20.2159 16.7619C19.9761 16.5234 19.5885 16.5244 19.3501 16.764C19.1116 17.0038 19.1126 17.3914 19.3523 17.6298L22.6911 20.9516C22.3492 21.2128 22.0647 21.5446 21.8584 21.9245L21.532 21.5998C21.5319 21.5996 21.5317 21.5995 21.5316 21.5993L20.4981 20.5714C20.1805 20.2553 19.7585 20.0814 19.3098 20.0814C18.8611 20.0814 18.4391 20.2554 18.1216 20.5714C18.0476 20.6449 17.9769 20.7208 17.9078 20.7979C17.7544 20.5827 17.5826 20.3781 17.3918 20.1874C17.4137 19.8122 17.5163 19.3888 17.7023 18.9384C17.782 18.7456 17.758 18.5253 17.6385 18.3543C16.9833 17.4157 17.0982 16.147 17.9117 15.3377C18.3612 14.8905 18.959 14.6443 19.5951 14.6443C20.0841 14.6443 20.5534 14.79 20.9525 15.0657C21.1227 15.1833 21.3408 15.2071 21.5322 15.1288C22.0341 14.9236 22.5216 14.8152 22.9424 14.8152C23.4044 14.8152 23.7638 14.9396 24.0105 15.1852C24.4263 15.5988 24.4963 16.36 24.2025 17.2738C24.1323 17.492 24.1899 17.7311 24.3517 17.8935C24.5135 18.0557 24.7524 18.1142 24.9709 18.0447C25.3423 17.9265 25.6916 17.8666 26.0091 17.8666C26.4713 17.8666 26.8309 17.991 27.0776 18.2365C27.4934 18.6503 27.5634 19.4115 27.2696 20.3253C27.1995 20.5435 27.257 20.7827 27.4189 20.9449C27.5806 21.1072 27.8197 21.1659 28.0381 21.0961C28.4095 20.978 28.7588 20.918 29.0764 20.918C29.5385 20.918 29.898 21.0425 30.1449 21.2882C30.391 21.533 30.5158 21.8892 30.5158 22.3471C30.5157 22.9354 30.311 23.6074 29.9464 24.2807ZM34.2757 26.1885H31.6606C31.6024 26.0364 31.5703 25.8718 31.5703 25.6996C31.5703 24.9345 32.1974 24.312 32.9681 24.312C33.7389 24.312 34.366 24.9345 34.366 25.6996C34.3659 25.8717 34.3338 26.0364 34.2757 26.1885ZM37.6793 22.2818C37.5599 22.4529 37.5358 22.673 37.6154 22.8658C38.0181 23.8414 38.0021 24.6788 37.5725 25.106C37.3512 25.3261 37.0271 25.4378 36.6089 25.4378C36.3178 25.4378 35.9973 25.3827 35.656 25.274C35.6214 25.2629 35.5863 25.2562 35.551 25.2516C35.4198 24.4986 34.9644 23.8552 34.3331 23.4701L36.15 21.6625C36.3896 21.4241 36.3907 21.0364 36.1521 20.7967C35.9135 20.5571 35.526 20.556 35.2864 20.7946L32.9815 23.0877C32.9769 23.0877 32.9724 23.0874 32.9679 23.0874C32.4593 23.0874 31.9845 23.2328 31.5821 23.4835C31.6855 23.0946 31.7401 22.7128 31.74 22.3471C31.74 22.0916 31.6836 21.3978 31.6483 21.2879C31.3799 20.4536 31.4413 19.7612 31.8163 19.3881C32.0376 19.168 32.3617 19.0564 32.7799 19.0564C33.1657 19.0564 33.6139 19.1562 34.0757 19.3449C34.2671 19.4232 34.4852 19.3994 34.6554 19.2818C35.0193 19.0304 35.4477 18.8974 35.8939 18.8974C36.4743 18.8974 37.0198 19.1221 37.4299 19.53C38.1721 20.2684 38.277 21.4257 37.6793 22.2818Z" fill="#464646"/>
<path d="M33.7781 32.6507C33.5583 32.3947 33.1726 32.3654 32.9166 32.5852C32.5285 32.9184 32.1071 33.2181 31.6639 33.4756C31.3723 33.6451 31.2732 34.0191 31.4426 34.3108C31.556 34.5059 31.7609 34.6149 31.9714 34.6149C32.0757 34.6149 32.1813 34.5882 32.2779 34.532C32.7853 34.2371 33.2681 33.894 33.7126 33.5123C33.9685 33.2924 33.9979 32.9067 33.7781 32.6507Z" fill="#464646"/>
<path d="M36.2731 28.1082C35.9488 28.016 35.6107 28.2039 35.5181 28.5283C35.2255 29.5553 34.7442 30.506 34.0873 31.3539C33.8807 31.6208 33.9295 32.0045 34.1963 32.2111C34.3075 32.2974 34.4393 32.339 34.57 32.339C34.7524 32.3391 34.9331 32.2576 35.0534 32.1023C35.8061 31.1304 36.3578 30.0407 36.6933 28.8633C36.7858 28.5388 36.5977 28.2007 36.2731 28.1082Z" fill="#464646"/>
</g>
<defs>
<clipPath id="clip0_122_4439">
<rect width="40" height="40" fill="white"/>
</clipPath>
</defs>
</svg>
