<svg width="20" height="20" viewBox="0 0 20 20" fill="none" xmlns="http://www.w3.org/2000/svg">
<path d="M19 9.77848C19 8.50515 18.1416 7.45047 17.0339 7.29141C16.4291 6.49841 14.2688 4.12878 10.0544 4.12878C5.82782 4.12878 3.59164 6.51161 2.97382 7.29033C1.86248 7.44569 1 8.50232 1 9.77848C1 10.8893 1.65358 11.8332 2.55576 12.1618L2.90885 13.6755C3.19606 14.9068 4.31782 15.8713 5.46267 15.8713H14.6461C15.791 15.8713 16.9127 14.9068 17.1999 13.6755L17.5642 12.1138C18.4037 11.7479 19 10.8394 19 9.77848ZM14.6461 14.6018H5.46267C4.84612 14.6018 4.16952 14.02 4.01479 13.3569L3.75085 12.2256C4.21964 12.1089 4.63382 11.8299 4.94279 11.4443C5.35642 11.9606 5.95897 12.2863 6.62849 12.2863C7.29806 12.2863 7.90048 11.9606 8.31418 11.4443C8.72794 11.9606 9.33036 12.2863 9.99994 12.2863C10.6695 12.2863 11.2719 11.9606 11.6857 11.4443C12.0994 11.9606 12.7019 12.2863 13.3714 12.2863C14.041 12.2863 14.6435 11.9606 15.0572 11.4443C15.3886 11.8579 15.8413 12.1486 16.3525 12.2482L16.0938 13.3569C15.9393 14.02 15.2627 14.6018 14.6461 14.6018ZM16.743 11.0169C16.1285 11.0169 15.6285 10.4614 15.6285 9.77848C15.6285 9.42798 15.3727 9.14373 15.0573 9.14373C14.7418 9.14373 14.486 9.42798 14.486 9.77848C14.486 10.4614 13.986 11.0169 13.3715 11.0169C12.7569 11.0169 12.2569 10.4614 12.2569 9.77848C12.2569 9.42798 12.0012 9.14373 11.6857 9.14373C11.3702 9.14373 11.1144 9.42798 11.1144 9.77848C11.1144 10.4614 10.6144 11.0169 9.99988 11.0169C9.38533 11.0169 8.88533 10.4614 8.88533 9.77848C8.88533 9.42798 8.62958 9.14373 8.31406 9.14373C7.99861 9.14373 7.74285 9.42798 7.74285 9.77848C7.74285 10.4614 7.24285 11.0169 6.6283 11.0169C6.01376 11.0169 5.51382 10.4614 5.51382 9.77848C5.51382 9.42798 5.258 9.14373 4.94255 9.14373C4.62709 9.14373 4.37127 9.42798 4.37127 9.77848C4.37127 10.4614 3.87133 11.0169 3.25673 11.0169C2.64218 11.0169 2.14224 10.4614 2.14224 9.77848C2.14224 9.09565 2.64218 8.54016 3.25673 8.54016C3.43655 8.54016 3.60733 8.44394 3.71521 8.28407C3.72006 8.27686 4.21636 7.55087 5.24188 6.83693C6.61303 5.88225 8.23212 5.39828 10.0541 5.39828C11.8725 5.39828 13.471 5.88037 14.8051 6.83121C15.8019 7.54171 16.2712 8.264 16.2744 8.26899C16.3813 8.43889 16.5561 8.54016 16.7427 8.54016C17.3572 8.54016 17.8572 9.09565 17.8572 9.77848C17.8575 10.4614 17.3575 11.0169 16.743 11.0169Z" fill="#464646" stroke="#464646" stroke-width="0.3"/>
<path d="M10.0545 5.69977C9.73909 5.69977 9.48328 5.98401 9.48328 6.33452V7.38186C9.48328 7.73236 9.73909 8.0166 10.0545 8.0166C10.37 8.0166 10.6258 7.73236 10.6258 7.38186V6.33445C10.6258 5.98394 10.3699 5.69977 10.0545 5.69977Z" fill="#464646" stroke="#464646" stroke-width="0.3"/>
<path d="M8.1999 5.97076C7.95827 5.74537 7.59784 5.78039 7.39517 6.04901L6.78917 6.8513C6.58639 7.11979 6.6179 7.52026 6.8596 7.74551C6.96663 7.84524 7.09693 7.89399 7.22651 7.89399C7.38954 7.89399 7.55142 7.81689 7.66445 7.66726L8.27039 6.86497C8.47311 6.59642 8.4416 6.19608 8.1999 5.97076Z" fill="#464646" stroke="#464646" stroke-width="0.3"/>
<path d="M12.7136 6.04896C12.5108 5.78034 12.1505 5.74545 11.9089 5.97071C11.6672 6.19603 11.6357 6.59636 11.8385 6.86492L12.4444 7.6672C12.5575 7.8169 12.7193 7.89394 12.8824 7.89394C13.0119 7.89394 13.1422 7.84518 13.2493 7.74545C13.491 7.52013 13.5225 7.11973 13.3197 6.85125L12.7136 6.04896Z" fill="#464646" stroke="#464646" stroke-width="0.3"/>
</svg>
