<svg width="20" height="20" viewBox="0 0 20 20" fill="none" xmlns="http://www.w3.org/2000/svg">
<path d="M13.75 18.3334C15.1333 18.3334 16.25 17.2167 16.25 15.8334C16.25 14.45 15.1333 13.3334 13.75 13.3334C12.6667 13.3334 11.75 14.0334 11.4 15H7.2L8.85833 12.45C9.1 12.4834 9.34167 12.5 9.58333 12.5C9.825 12.5 10.0667 12.4834 10.3083 12.45L11.1583 13.7584C11.5083 13.3167 11.9583 12.9667 12.4917 12.75L11.9917 11.975C14.0083 11.0584 15.4167 9.03335 15.4167 6.66669H3.75C3.75 9.03335 5.15833 11.0584 7.18333 11.975L3.89167 17.0417C3.64167 17.425 3.75 17.9417 4.13333 18.1917C4.51667 18.4417 5.03333 18.3334 5.28333 17.95L6.11667 16.6584H11.4C11.75 17.6334 12.6667 18.3334 13.75 18.3334ZM13.75 15C14.2083 15 14.5833 15.375 14.5833 15.8334C14.5833 16.2917 14.2083 16.6667 13.75 16.6667C13.2917 16.6667 12.9167 16.2917 12.9167 15.8334C12.9167 15.375 13.2917 15 13.75 15ZM5.76667 8.33335H13.4C12.7583 9.80002 11.2833 10.8334 9.58333 10.8334C7.88333 10.8334 6.40833 9.80002 5.76667 8.33335Z" fill="#464646"/>
<path d="M7.425 5.83335H8.25833C8.38333 4.87502 8.45 4.46669 7.51667 3.36669C7.16667 2.95002 6.95 2.72502 7.13333 1.66669H6.30833C6.13333 2.59169 6.33333 3.37502 7.05 4.13335C7.23333 4.33335 7.70833 4.69169 7.425 5.83335Z" fill="#464646"/>
<path d="M9.49167 5.83335H10.325C10.45 4.87502 10.5167 4.46669 9.58333 3.36669C9.23333 2.95002 9.01667 2.71669 9.2 1.66669H8.375C8.2 2.59169 8.4 3.37502 9.11667 4.13335C9.30833 4.33335 9.78333 4.69169 9.49167 5.83335Z" fill="#464646"/>
<path d="M11.5917 5.83335H12.425C12.55 4.87502 12.6167 4.46669 11.6833 3.36669C11.3333 2.95002 11.1167 2.72502 11.3 1.66669H10.475C10.3 2.59169 10.5 3.37502 11.2167 4.13335C11.4 4.33335 11.875 4.69169 11.5917 5.83335Z" fill="#464646"/>
</svg>
