<svg width="20" height="20" viewBox="0 0 20 20" fill="none" xmlns="http://www.w3.org/2000/svg">
<path d="M8.46806 13.9111H7.44678V15.3333H8.46806V13.9111Z" fill="#464646"/>
<path d="M12.5531 13.9111H11.5319V15.3333H12.5531V13.9111Z" fill="#464646"/>
<path d="M6.76605 8.75543C6.39077 8.75543 6.08533 9.07438 6.08521 9.46654C6.08521 9.85863 6.39061 10.1776 6.76599 10.1776H6.76605C7.14145 10.1776 7.44689 9.85863 7.44689 9.46654C7.44689 9.07445 7.14145 8.75543 6.76605 8.75543Z" fill="#464646"/>
<path d="M13.2341 8.75543C12.8588 8.75543 12.5533 9.07438 12.5532 9.46654C12.5532 9.85863 12.8586 10.1776 13.234 10.1776H13.2341C13.6095 10.1776 13.9149 9.85863 13.9149 9.46654C13.9149 9.07445 13.6095 8.75543 13.2341 8.75543Z" fill="#464646"/>
<path d="M16.4681 4.13323C15.5574 4.13323 14.7737 4.71094 14.4346 5.53377C14.2939 5.40083 14.1387 5.28438 13.9723 5.18646C13.9315 5.03652 13.7566 4.40433 13.5294 3.76196C13.0741 2.47494 12.7228 1.99691 12.2388 2.00001C11.7532 2.00253 11.408 2.48376 10.9654 3.77561C10.8293 4.17279 10.713 4.56583 10.6345 4.8444H9.36508C9.28389 4.5658 9.16167 4.16587 9.01883 3.76203C8.56486 2.47844 8.21577 2.00008 7.73227 2.00008C7.73099 2.00008 7.72961 2.00008 7.72833 2.00008C7.24268 2.00259 6.89755 2.48382 6.4549 3.77567C6.24284 4.39454 6.0788 5.00352 6.03124 5.1844C5.8634 5.28278 5.70702 5.39998 5.56527 5.53387C5.22628 4.71101 4.44256 4.1333 3.53187 4.1333H2V5.73329C2 7.00765 2.99265 8.04443 4.21278 8.04443H4.7234V11.0667C4.7234 11.7999 5.05274 12.474 5.59374 12.9045C5.47193 13.2153 5.40427 13.555 5.40427 13.9111V15.3333C5.40427 16.8037 6.54965 18 7.95746 18H12.0425C13.4504 18 14.5957 16.8037 14.5957 15.3333V13.9111C14.5957 13.5551 14.528 13.2154 14.4063 12.9045C14.9473 12.4741 15.2766 11.7999 15.2766 11.0667V8.04443H15.7872C17.0073 8.04443 18 7.00765 18 5.73329V4.13323H16.4681ZM4.7234 6.97769H4.21278C3.55578 6.97769 3.02128 6.41943 3.02128 5.73323V5.19991H3.5319C4.1889 5.19991 4.7234 5.75816 4.7234 6.44437V6.97769ZM12.2452 3.32277C12.4092 3.66532 12.6181 4.22968 12.8079 4.84659C12.7798 4.84564 11.6997 4.84434 11.6997 4.84434C11.8829 4.2287 12.0851 3.66561 12.2452 3.32277ZM7.73474 3.32277C7.89855 3.66493 8.10708 4.22831 8.29677 4.84434C8.29677 4.84434 7.21787 4.84561 7.18858 4.84666C7.37186 4.23011 7.57446 3.66601 7.73474 3.32277ZM7.27658 5.91101H12.7234C13.3891 5.91101 13.9566 6.35696 14.1675 6.97769H13.0638C11.8437 6.97769 10.8511 8.01446 10.8511 9.28879V11.2444H9.14896V9.28879C9.14896 8.01443 8.1563 6.97769 6.93618 6.97769H5.83249C6.0433 6.35696 6.6109 5.91101 7.27658 5.91101ZM5.74468 11.0666V8.04433H6.93618C7.59318 8.04433 8.12768 8.60259 8.12768 9.28879V11.2444H7.95746C7.25921 11.2444 6.62574 11.5389 6.16437 12.0149C5.90237 11.7824 5.74468 11.4387 5.74468 11.0666ZM13.5744 15.3333C13.5744 16.2155 12.8872 16.9333 12.0425 16.9333H7.95743C7.11274 16.9333 6.42552 16.2155 6.42552 15.3333V13.9111C6.42552 13.0288 7.11274 12.3111 7.95743 12.3111H12.0425C12.8872 12.3111 13.5744 13.0288 13.5744 13.9111V15.3333H13.5744ZM14.2553 11.0666C14.2553 11.4387 14.0976 11.7825 13.8356 12.015C13.3742 11.5389 12.7408 11.2444 12.0425 11.2444H11.8723V9.28879C11.8723 8.60259 12.4068 8.04433 13.0638 8.04433H14.2553V11.0666ZM16.9787 5.73323C16.9787 6.41943 16.4442 6.97769 15.7872 6.97769H15.2766V6.44437C15.2766 5.75816 15.8111 5.19991 16.4681 5.19991H16.9787V5.73323Z" fill="#464646" stroke="#464646" stroke-width="0.5"/>
</svg>
