<svg width="20" height="20" viewBox="0 0 20 20" fill="none" xmlns="http://www.w3.org/2000/svg">
<path fill-rule="evenodd" clip-rule="evenodd" d="M9.31608 8.34078C7.8215 8.17392 5.89419 8.84047 4.56392 10.1731C2.90288 11.8371 2.95735 13.905 4.52226 15.4727C6.08717 17.0404 8.15139 17.095 9.81243 15.431C11.1258 14.1153 11.791 12.2166 11.6475 10.7277C11.5823 10.0519 11.3505 9.46058 10.9371 9.04643C10.5354 8.64404 9.96677 8.41343 9.31608 8.34078ZM12.6509 8.54184L14.162 7.02803L14.7299 7.40491C15.2206 7.73061 15.8804 7.66784 16.3026 7.24491C16.7907 6.75589 16.7907 5.96303 16.3026 5.474C16.108 5.27909 15.8621 5.15766 15.5962 5.1198L14.9764 5.03156L14.8884 4.41075C14.8506 4.14432 14.7294 3.898 14.5348 3.70309C14.0466 3.21406 13.2552 3.21406 12.767 3.70309C12.3449 4.12601 12.2822 4.78696 12.6073 5.27856L12.9835 5.84742L11.4795 7.35414C11.7076 7.50088 11.9205 7.67132 12.1151 7.86631C12.3207 8.07229 12.499 8.29868 12.6509 8.54184ZM9.75893 6.71654L10.903 5.57041C10.5332 4.53142 10.7744 3.33804 11.5885 2.52248C12.7275 1.38142 14.5743 1.38142 15.7133 2.52248C16.0238 2.83349 16.2554 3.20399 16.3986 3.60688C16.8008 3.75034 17.1706 3.98238 17.4811 4.29339C18.6201 5.43445 18.6201 7.28447 17.4811 8.42552C16.667 9.24108 15.4757 9.48271 14.4386 9.11224L13.2713 10.2815C13.5823 12.3632 12.709 14.8869 10.9874 16.6116C8.66165 18.9414 5.54533 18.8591 3.34362 16.6534C1.14191 14.4478 1.05967 11.3259 3.38539 8.99609C5.12215 7.25623 7.67057 6.38124 9.75893 6.71654Z" fill="white"/>
</svg>
