<svg width="20" height="20" viewBox="0 0 20 20" fill="none" xmlns="http://www.w3.org/2000/svg">
<path fill-rule="evenodd" clip-rule="evenodd" d="M9.31602 8.34072C7.82144 8.17386 5.89412 8.84041 4.56385 10.1731C2.90282 11.837 2.95729 13.9049 4.5222 15.4726C6.08711 17.0403 8.15133 17.0949 9.81237 15.4309C11.1257 14.1152 11.791 12.2166 11.6474 10.7276C11.5822 10.0519 11.3505 9.46052 10.937 9.04637C10.5354 8.64398 9.96671 8.41337 9.31602 8.34072ZM12.6509 8.54178L14.162 7.02797L14.7298 7.40485C15.2206 7.73055 15.8803 7.66778 16.3025 7.24485C16.7907 6.75583 16.7907 5.96296 16.3025 5.47394C16.1079 5.27903 15.862 5.1576 15.5961 5.11973L14.9764 5.0315L14.8883 4.41069C14.8505 4.14426 14.7293 3.89794 14.5347 3.70303C14.0466 3.214 13.2551 3.214 12.767 3.70303C12.3448 4.12595 12.2821 4.7869 12.6073 5.2785L12.9835 5.84736L11.4794 7.35408C11.7075 7.50082 11.9204 7.67126 12.1151 7.86625C12.3207 8.07222 12.4989 8.29861 12.6509 8.54178ZM9.75887 6.71648L10.903 5.57035C10.5331 4.53136 10.7743 3.33797 11.5885 2.52242C12.7275 1.38136 14.5742 1.38136 15.7132 2.52242C16.0237 2.83343 16.2553 3.20393 16.3985 3.60682C16.8007 3.75028 17.1705 3.98232 17.481 4.29333C18.62 5.43439 18.62 7.28441 17.481 8.42546C16.6669 9.24102 15.4756 9.48265 14.4385 9.11218L13.2713 10.2815C13.5822 12.3632 12.7089 14.8868 10.9873 16.6115C8.66159 18.9414 5.54527 18.859 3.34356 16.6534C1.14185 14.4477 1.05961 11.3259 3.38533 8.99603C5.12209 7.25617 7.67051 6.38117 9.75887 6.71648Z" fill="#464646"/>
</svg>
