<svg width="20" height="20" viewBox="0 0 20 20" fill="none" xmlns="http://www.w3.org/2000/svg">
<path d="M12.6283 7.37171L15.2566 10M12.6283 7.37171L10.6571 9.34293M12.6283 7.37171L15.2566 4.7434M12.6283 7.37171L10 4.7434M15.2566 10L13.2854 11.9713L10.6571 9.34293M15.2566 10L17.2227 8.03397C17.5884 7.66821 17.5884 7.0752 17.2227 6.70945L15.2566 4.7434M10.6571 9.34293L8.02879 6.71464L10 4.7434M15.2566 4.7434L13.2906 2.77737C12.9248 2.41161 12.3318 2.41161 11.966 2.77737L10 4.7434M11.9713 14.5995L13.2802 13.2906C13.6459 12.9248 13.6459 12.3318 13.2802 11.966L8.03397 6.71982C7.66821 6.35406 7.0752 6.35406 6.70945 6.71982L5.40049 8.02879M11.9713 14.5995L11.642 13.6136L8.03397 17.2227C7.66821 17.5884 7.0752 17.5884 6.70945 17.2227L2.77737 13.2906C2.41161 12.9248 2.41161 12.3318 2.77737 11.966L6.38589 8.35743L5.40049 8.02879M11.9713 14.5995L11.3142 12.6283L8.68585 11.3142L7.37171 8.68585L5.40049 8.02879" stroke="#464646" stroke-width="1.3" stroke-linejoin="round"/>
</svg>
