<svg width="20" height="20" viewBox="0 0 20 20" fill="none" xmlns="http://www.w3.org/2000/svg">
<path d="M11.9444 18H7.05556C5.36889 18 4 16.7498 4 15.2093V11.4735C4 11.3246 4.06516 11.1833 4.17923 11.0791C4.29331 10.9749 4.44815 10.9153 4.61111 10.9153L7.78075 10.9302C8.46518 10.9302 9.14963 11.0791 9.76889 11.3619C10.2252 11.5702 10.7141 11.6744 11.2274 11.6744H14.3889C14.723 11.6744 15 11.9274 15 12.2326V15.2093C15 16.7498 13.6311 18 11.9444 18ZM5.22222 12.0316V15.2093C5.22222 16.1321 6.04519 16.8837 7.05556 16.8837H11.9444C12.9548 16.8837 13.7778 16.1321 13.7778 15.2093V12.7907H11.2274C10.5267 12.7907 9.85037 12.6493 9.22296 12.3591C8.76667 12.1507 8.27778 12.0465 7.78075 12.0465L5.22222 12.0316Z" fill="#464646" stroke="#464646" stroke-width="0.3"/>
<path d="M14.3889 12.7907H11.2274C10.5267 12.7907 9.85037 12.6493 9.22296 12.3591C8.76667 12.1507 8.27778 12.0465 7.78075 12.0465L4.61111 12.0316C4.27704 12.0316 4 11.7786 4 11.4735V9.12929C4 8.63812 4.27704 8.02789 4.66 7.67812L6.3874 6.10044C6.41999 6.07068 6.44444 6.01859 6.44444 5.97394V4.79068C6.44444 4.48557 6.72148 4.23254 7.05556 4.23254H11.9444C12.2785 4.23254 12.5556 4.48557 12.5556 4.79068V5.97394C12.5556 6.01859 12.58 6.07068 12.6126 6.10044L14.34 7.67812C14.723 8.02789 15 8.63812 15 9.12929V12.2325C15 12.5377 14.723 12.7907 14.3889 12.7907ZM5.22222 10.9153L7.78075 10.9302C8.46518 10.9302 9.14963 11.0791 9.76889 11.3618C10.2252 11.5702 10.7141 11.6744 11.2274 11.6744H13.7778V9.12929C13.7778 8.9358 13.6311 8.60836 13.4763 8.46696L11.7489 6.88929C11.4881 6.65116 11.3333 6.31626 11.3333 5.97394V5.34882H7.66667V5.97394C7.66667 6.31626 7.51184 6.65116 7.2511 6.88929L5.5237 8.46696C5.36889 8.60836 5.22222 8.9358 5.22222 9.12929V10.9153Z" fill="#464646" stroke="#464646" stroke-width="0.3"/>
<path d="M14.3889 13.5348C14.0549 13.5348 13.7778 13.2818 13.7778 12.9767V12.2325C13.7778 11.9274 14.0549 11.6744 14.3889 11.6744C14.723 11.6744 15.0001 11.9274 15.0001 12.2325V12.9767C15.0001 13.2818 14.723 13.5348 14.3889 13.5348Z" fill="#464646" stroke="#464646" stroke-width="0.3"/>
<path d="M4.61111 12.7758C4.27704 12.7758 4 12.5228 4 12.2177V11.4735C4 11.1684 4.27704 10.9153 4.61111 10.9153C4.94519 10.9153 5.22222 11.1684 5.22222 11.4735V12.2177C5.22222 12.5228 4.94519 12.7758 4.61111 12.7758Z" fill="#464646" stroke="#464646" stroke-width="0.3"/>
<path d="M11.537 5.34884H7.46297C6.4526 5.34884 5.62964 4.59721 5.62964 3.67442C5.62964 2.75163 6.4526 2 7.46297 2H11.537C12.5474 2 13.3704 2.75163 13.3704 3.67442C13.3704 4.59721 12.5474 5.34884 11.537 5.34884ZM7.46297 3.11628C7.1289 3.11628 6.85186 3.3693 6.85186 3.67442C6.85186 3.97953 7.1289 4.23256 7.46297 4.23256H11.537C11.8711 4.23256 12.1482 3.97953 12.1482 3.67442C12.1482 3.3693 11.8711 3.11628 11.537 3.11628H7.46297Z" fill="#464646" stroke="#464646" stroke-width="0.3"/>
</svg>
