<svg width="20" height="20" viewBox="0 0 20 20" fill="none" xmlns="http://www.w3.org/2000/svg">
<path d="M15.8337 7.50002C14.167 5.83335 13.3253 1.66669 8.30866 1.66669C4.12533 1.66669 1.61699 5.00002 1.66699 9.60002C1.71699 14.2 5.80033 15.8334 8.30866 15.8334C9.98366 15.8334 9.98366 18.3334 13.3253 18.3334C15.8337 18.3334 18.3337 15.8334 18.3337 12.5167C18.3337 10 17.5087 9.16669 15.8337 7.50002ZM13.3253 16.6667C12.0837 16.6667 11.692 16.25 11.092 15.6167C10.5503 15.0417 9.71699 14.1667 8.30866 14.1667C6.94199 14.1667 3.37533 13.3417 3.33366 9.58335C3.30866 7.49169 3.90033 5.73335 4.99199 4.62502C5.84199 3.76669 6.95866 3.33335 8.30866 3.33335C11.092 3.33335 12.067 4.88335 13.192 6.68335C13.6503 7.41669 14.0837 8.10835 14.6587 8.67502C16.242 10.25 16.667 10.675 16.667 12.5167C16.667 14.8917 14.9003 16.6667 13.3253 16.6667Z" fill="#464646"/>
<path d="M10.0003 12.9167C11.6112 12.9167 12.917 11.6109 12.917 10C12.917 8.38919 11.6112 7.08335 10.0003 7.08335C8.3895 7.08335 7.08366 8.38919 7.08366 10C7.08366 11.6109 8.3895 12.9167 10.0003 12.9167Z" fill="#464646"/>
</svg>
