<svg width="20" height="20" viewBox="0 0 20 20" fill="none" xmlns="http://www.w3.org/2000/svg">
<path d="M15.8337 7.50002C14.1671 5.83335 13.3254 1.66669 8.30872 1.66669C4.12539 1.66669 1.61705 5.00002 1.66705 9.60002C1.71705 14.2 5.80039 15.8334 8.30872 15.8334C9.98372 15.8334 9.98372 18.3334 13.3254 18.3334C15.8337 18.3334 18.3337 15.8334 18.3337 12.5167C18.3337 10 17.5087 9.16669 15.8337 7.50002ZM13.3254 16.6667C12.0837 16.6667 11.6921 16.25 11.0921 15.6167C10.5504 15.0417 9.71705 14.1667 8.30872 14.1667C6.94205 14.1667 3.37539 13.3417 3.33372 9.58335C3.30872 7.49169 3.90039 5.73335 4.99205 4.62502C5.84205 3.76669 6.95872 3.33335 8.30872 3.33335C11.0921 3.33335 12.0671 4.88335 13.1921 6.68335C13.6504 7.41669 14.0837 8.10835 14.6587 8.67502C16.2421 10.25 16.6671 10.675 16.6671 12.5167C16.6671 14.8917 14.9004 16.6667 13.3254 16.6667Z" fill="white"/>
<path d="M10.0004 12.9167C11.6112 12.9167 12.9171 11.6109 12.9171 10C12.9171 8.38919 11.6112 7.08335 10.0004 7.08335C8.38956 7.08335 7.08372 8.38919 7.08372 10C7.08372 11.6109 8.38956 12.9167 10.0004 12.9167Z" fill="white"/>
</svg>
