<svg width="20" height="20" viewBox="0 0 20 20" fill="none" xmlns="http://www.w3.org/2000/svg">
<path d="M0.313751 9.56504C0.454219 9.37028 3.80355 4.79547 8.10395 4.79547C11.4004 4.79547 14.1377 7.48344 15.2997 8.82625C16.0785 8.00449 17.5298 6.77813 19.2565 6.77813H20V13.1876H19.2565C17.5412 13.1876 16.0975 11.9773 15.315 11.1558C14.1623 12.4924 11.4152 15.2045 8.10395 15.2045C3.80355 15.2045 0.454219 10.6297 0.313751 10.4349L0 10L0.313751 9.56504ZM18.513 11.5813V8.38539C17.9052 8.57567 17.3574 8.95914 16.9605 9.29617C16.676 9.53785 16.4365 9.78246 16.2571 9.98129C16.7126 10.4838 17.5516 11.2814 18.513 11.5813ZM3.50578 11.6661C5.48316 13.3616 7.0977 13.7175 8.10395 13.7175C10.9445 13.7175 13.4515 11.0636 14.3429 9.99895C14.0063 9.59563 13.438 8.96485 12.7021 8.33383C10.7247 6.63828 9.11016 6.28242 8.10391 6.28242C5.26363 6.28242 2.7568 8.93578 1.86508 10.001C2.20172 10.4043 2.77004 11.0352 3.50578 11.6661Z" fill="#464646"/>
<path d="M5.62563 10.7436C5.21499 10.7436 4.88211 10.4107 4.88211 10.0001C4.88211 9.58947 5.21499 9.25659 5.62563 9.25659C6.03626 9.25659 6.36914 9.58947 6.36914 10.0001C6.36914 10.4107 6.03626 10.7436 5.62563 10.7436Z" fill="#464646"/>
</svg>
