<svg width="20" height="20" viewBox="0 0 20 20" fill="none" xmlns="http://www.w3.org/2000/svg">
<path d="M17.744 10.7511C17.4318 10.0519 16.8735 9.5289 16.1721 9.27852C15.4323 9.01439 14.5059 9.09778 13.6939 9.5015C13.5379 9.57899 13.3734 9.62749 13.2094 9.65509C13.1613 9.27542 13.2359 8.92261 13.4329 8.60235C13.4959 8.49979 13.565 8.41124 13.6309 8.33739C13.7914 8.15779 13.8162 7.89281 13.6883 7.68805C13.5011 7.38825 13.0841 7.35277 12.849 7.61566C12.755 7.72084 12.6578 7.8444 12.5664 7.9864C12.3305 8.35311 12.1024 8.89537 12.1415 9.58884C12.0397 9.56004 11.9591 9.52925 11.908 9.50327C11.4664 9.27852 10.9872 9.15218 10.5204 9.12829C10.2672 8.60032 10.134 8.01979 10.134 7.43204C10.134 6.8017 9.93695 6.20286 9.56401 5.70027C9.20379 5.21472 8.69107 4.85013 8.12023 4.67363C8.10035 4.66748 8.0801 4.66251 8.0596 4.6588C8.05142 4.65731 8.04329 4.65608 8.03514 4.65465C8.21039 4.21571 8.55835 3.58876 9.23423 3.0198C9.45248 2.83608 9.50539 2.51023 9.33726 2.27858C9.15595 2.02868 8.80767 1.98724 8.57473 2.18189C8.13798 2.54679 7.8082 2.93559 7.55957 3.30582C7.30695 2.35686 6.10604 1.8128 4.75417 2.05912C3.79757 2.23328 2.75376 3.19956 2.21663 3.7601C2.04492 3.93932 1.96845 4.19309 2.01201 4.43894C2.05557 4.68485 2.21445 4.89578 2.43688 5.00318C3.0396 5.29421 4.10317 5.73651 4.99882 5.73648C5.01595 5.73648 5.03282 5.73581 5.04982 5.73546C4.66489 6.22713 4.44514 6.83044 4.44514 7.43204C4.44514 8.33822 4.12914 9.22143 3.55535 9.91906C2.82932 10.8017 2.42948 11.9217 2.42948 13.0728C2.42948 15.7896 4.60973 18 7.2896 18C8.27445 18 9.23314 17.6959 10.0385 17.1358C10.9683 18.072 11.8105 18.0968 12.4062 17.9027C12.5487 17.8562 12.6799 17.7807 12.7992 17.6765C12.9185 17.7807 13.0497 17.8562 13.1922 17.9027C13.3713 17.9611 13.5726 17.9997 13.792 17.9997C14.5124 17.9996 15.4265 17.5833 16.3815 16.0833C17.0386 15.0512 17.5321 13.811 17.8303 12.9523C18.0832 12.224 18.0526 11.4423 17.744 10.7511ZM3.27223 4.20947C3.91723 3.59171 4.52554 3.18971 4.94104 3.11402C5.78189 2.96093 6.4817 3.25142 6.54582 3.61338C6.57373 3.7709 6.47901 3.96549 6.28595 4.14718C6.03057 4.38755 5.63939 4.56994 5.21276 4.64765C4.7972 4.72334 4.08885 4.56107 3.27223 4.20947ZM7.28948 16.9282C5.19264 16.9282 3.48667 15.1986 3.48667 13.0728C3.48667 12.1721 3.79942 11.2959 4.36729 10.6055C5.09923 9.71563 5.50232 8.58863 5.50232 7.43207C5.50232 6.95456 5.74042 6.46768 6.13914 6.12968C6.46017 5.85753 6.85848 5.70404 7.29479 5.67752C7.3117 5.67914 7.32857 5.68024 7.34526 5.68024C7.37392 5.68024 7.40207 5.67752 7.4297 5.67296C7.43026 5.67296 7.43082 5.67293 7.43142 5.67293C7.5652 5.67293 7.70217 5.68462 7.84104 5.70822C8.58151 5.95093 9.07676 6.63978 9.07676 7.4321C9.07676 8.06544 9.19742 8.69223 9.42935 9.27741C9.42829 9.27779 9.4272 9.27817 9.42614 9.27855C9.38229 9.2942 9.33901 9.31093 9.29632 9.32867C8.65589 9.59502 8.14698 10.0956 7.85432 10.7512C7.5457 11.4424 7.51501 12.2241 7.76798 12.9523C8.06623 13.811 8.55967 15.0512 9.21679 16.0833C9.26564 16.16 9.31435 16.2336 9.36298 16.3047C8.74926 16.7094 8.02876 16.9282 7.28948 16.9282ZM16.8331 12.5963C16.0235 14.9271 14.7267 17.277 13.5157 16.8823C13.4902 16.874 13.3938 16.7915 13.2884 16.5303C13.207 16.3289 13.0137 16.1974 12.7991 16.1974C12.5845 16.1974 12.3912 16.329 12.3099 16.5303C12.2045 16.7915 12.108 16.8739 12.0826 16.8823C11.5726 17.0484 11.0473 16.7277 10.5496 16.1268C10.538 16.1081 10.5256 16.0899 10.5115 16.0723C9.74323 15.1211 9.14798 13.6665 8.82901 12.777C8.82514 12.7661 8.82126 12.7553 8.81739 12.7444C8.81085 12.7261 8.80439 12.7079 8.79807 12.6901C8.78704 12.6588 8.77604 12.6275 8.7652 12.5963C8.60317 12.1298 8.62176 11.6315 8.81745 11.1932C8.87751 11.0587 8.95207 10.9349 9.03923 10.8236C9.10489 10.7397 9.17792 10.6633 9.25701 10.5945C9.26739 10.5855 9.27785 10.5766 9.28839 10.5679C9.39014 10.4837 9.50148 10.4119 9.62135 10.3545C9.67189 10.3303 9.72389 10.3086 9.77723 10.2896C9.80989 10.2779 9.84354 10.2675 9.87785 10.258C9.88801 10.2552 9.89845 10.2529 9.9087 10.2503C9.93326 10.244 9.95804 10.238 9.98332 10.2329C9.99554 10.2304 10.0079 10.2282 10.0203 10.226C10.0447 10.2215 10.0693 10.2175 10.0943 10.214C10.1068 10.2123 10.1193 10.2107 10.1319 10.2092C10.1584 10.2062 10.1853 10.2037 10.2125 10.2017C10.6054 10.1731 11.043 10.2624 11.4336 10.4613C11.7192 10.6066 12.2084 10.7426 12.7571 10.7546C12.771 10.7557 12.7849 10.7563 12.799 10.7563C12.8054 10.7563 12.8118 10.7558 12.8182 10.7555C13.2551 10.7575 13.7257 10.6794 14.1593 10.4639C14.7136 10.1883 15.3503 10.1216 15.8209 10.2895C16.2477 10.4419 16.5886 10.7628 16.7807 11.1932C16.9766 11.6315 16.9951 12.1298 16.8331 12.5963Z" fill="white" stroke="white" stroke-width="0.5"/>
</svg>
