<svg width="20" height="20" viewBox="0 0 20 20" fill="none" xmlns="http://www.w3.org/2000/svg">
<path d="M9.087 3.15848L8.20261 4.04962C7.73093 4.52489 7.61301 5.29722 8.02573 5.8319C8.4974 6.54481 9.49972 6.60422 10.0893 6.01013L10.9737 5.11899C11.4454 4.64371 12.2119 4.52489 12.7425 4.94076C13.45 5.41603 13.509 6.42599 12.9194 7.02008L4.4292 15.6344C3.95752 16.1097 3.8396 16.882 4.25232 17.4167C4.724 18.1296 5.72631 18.189 6.3159 17.5949L14.8061 8.92118C16.398 7.31713 16.398 4.76253 14.8061 3.15848C13.2731 1.61384 10.6789 1.61384 9.087 3.15848Z" stroke="#464646" stroke-width="1.3" stroke-miterlimit="10" stroke-linecap="round" stroke-linejoin="round"/>
<path d="M5.78528 14.2086L6.72863 17.1197" stroke="#464646" stroke-width="1.3" stroke-miterlimit="10" stroke-linecap="round" stroke-linejoin="round"/>
<path d="M8.14368 11.8322L9.08703 14.6839" stroke="#464646" stroke-width="1.3" stroke-miterlimit="10" stroke-linecap="round" stroke-linejoin="round"/>
<path d="M10.5609 9.39648L11.5043 12.3075" stroke="#464646" stroke-width="1.3" stroke-miterlimit="10" stroke-linecap="round" stroke-linejoin="round"/>
<path d="M12.9193 7.02008C13.5089 7.61417 13.8627 8.4459 13.8627 9.33704V9.87173" stroke="#464646" stroke-width="1.3" stroke-miterlimit="10" stroke-linecap="round" stroke-linejoin="round"/>
<path d="M13.391 5.5943L13.5679 5.53489C14.3343 5.29725 15.2187 5.47548 15.8083 6.06957" stroke="#464646" stroke-width="1.3" stroke-miterlimit="10" stroke-linecap="round" stroke-linejoin="round"/>
<path d="M12.9193 2.20795C12.3297 2.80204 12.1528 3.69318 12.3887 4.4655L12.4476 4.64373" stroke="#464646" stroke-width="1.3" stroke-miterlimit="10" stroke-linecap="round" stroke-linejoin="round"/>
<path d="M9.08704 3.15851C9.38183 4.04965 10.0893 4.76256 10.9737 5.05961" stroke="#464646" stroke-width="1.3" stroke-miterlimit="10" stroke-linecap="round" stroke-linejoin="round"/>
</svg>
