<svg width="20" height="20" viewBox="0 0 20 20" fill="none" xmlns="http://www.w3.org/2000/svg">
<path d="M15.9935 9.71407C15.8359 8.45279 15.1425 7.28783 14.0414 6.43368C13.3905 5.9289 12.6275 5.55734 11.8059 5.33627C12.0973 5.04421 12.4571 4.75806 12.881 4.5589C13.3158 4.35468 13.5135 3.90028 13.3412 3.50194L12.9351 2.56294C12.7127 2.04854 11.999 1.84435 11.4622 2.12935C10.702 2.53304 9.42784 3.44716 9.02577 5.16693C7.88875 5.32606 6.82445 5.76212 5.95863 6.43371C4.85744 7.28786 4.16411 8.45285 4.00647 9.71413C3.97205 9.9895 4.07604 10.2657 4.29166 10.4719C4.50782 10.6785 4.81697 10.7971 5.13989 10.7971H5.19376V13.0314C5.19376 14.5428 6.15611 15.931 7.70525 16.6543C8.38285 16.9707 9.0261 17.3824 9.56555 17.845C9.68042 17.9442 9.83686 18 10 18C10.163 18 10.3192 17.9442 10.4341 17.8453C10.9813 17.3759 11.6073 16.9752 12.2947 16.6543C13.8439 15.931 14.8062 14.5428 14.8062 13.0313V10.797H14.8601C15.1833 10.797 15.4926 10.6787 15.7085 10.4722C15.9241 10.2661 16.028 9.98978 15.9935 9.71407ZM11.8828 3.15153L12.128 3.71844C11.4003 4.098 10.8439 4.64306 10.4586 5.11412C10.452 5.11371 10.316 5.10631 10.3012 5.10568C10.6271 4.09181 11.3435 3.48263 11.8828 3.15153ZM11.709 15.7309C11.0937 16.0182 10.5209 16.3613 9.99999 16.7542C9.47908 16.3614 8.90627 16.0182 8.29092 15.7309C7.13626 15.1918 6.419 14.1574 6.419 13.0313V10.797H13.5809V13.0313H13.5809C13.581 14.1574 12.8637 15.1918 11.709 15.7309ZM5.23568 9.74575C5.54746 7.63589 7.67171 6.08583 10.1525 6.1528C10.1639 6.15311 10.1752 6.15343 10.1866 6.15383C12.5482 6.23183 14.4702 7.75561 14.7643 9.74575C14.4336 9.74575 5.56563 9.74575 5.23568 9.74575Z" fill="white" stroke="white" stroke-width="0.3"/>
</svg>
