<svg width="20" height="20" viewBox="0 0 20 20" fill="none" xmlns="http://www.w3.org/2000/svg">
<path d="M16.5391 2H3.46088C2.65534 2 2 2.65534 2 3.46088V16.5391C2 17.3447 2.65534 18 3.46088 18H16.5391C17.3447 18 18 17.3447 18 16.5391V3.46088C18 2.65534 17.3447 2 16.5391 2ZM16.9565 16.5391C16.9565 16.7693 16.7693 16.9565 16.5391 16.9565H3.46088C3.23072 16.9565 3.04347 16.7693 3.04347 16.5391V6.58753H16.9565V16.5391H16.9565ZM16.9565 5.54406H3.04347V3.46088C3.04347 3.23072 3.23072 3.04347 3.46088 3.04347H16.5391C16.7693 3.04347 16.9565 3.23072 16.9565 3.46088V5.54406Z" fill="#464646"/>
<path d="M15.3471 7.61121H4.67883C4.06508 7.61121 3.5658 8.11052 3.5658 8.72424V15.1008C3.5658 15.7146 4.06511 16.2138 4.67883 16.2138H15.3471C15.9609 16.2138 16.4601 15.7146 16.4601 15.1008V8.72427C16.4601 8.11055 15.9609 7.61121 15.3471 7.61121ZM4.67883 15.1704C4.64048 15.1704 4.6093 15.1392 4.6093 15.1009V8.72427C4.6093 8.68589 4.64048 8.65471 4.67886 8.65471H8.82573L6.40048 11.08C6.19673 11.2837 6.19673 11.6141 6.40048 11.8178C6.50236 11.9197 6.63589 11.9706 6.76939 11.9706C6.90289 11.9706 7.03645 11.9197 7.1383 11.8178L10.296 8.66014C10.2977 8.65839 10.2991 8.65649 10.3008 8.65474H11.5535L5.03783 15.1704H4.67883ZM15.4166 15.1009C15.4166 15.1392 15.3855 15.1704 15.3471 15.1704H6.51351L13.0292 8.65471H15.3471C15.3855 8.65471 15.4166 8.68589 15.4166 8.72427V15.1009Z" fill="#464646"/>
<path d="M4.48343 5.0852C4.92563 5.0852 5.28411 4.72672 5.28411 4.28451C5.28411 3.84231 4.92563 3.48383 4.48343 3.48383C4.04122 3.48383 3.68274 3.84231 3.68274 4.28451C3.68274 4.72672 4.04122 5.0852 4.48343 5.0852Z" fill="#464646"/>
<path d="M7.22024 5.0852C7.66245 5.0852 8.02093 4.72672 8.02093 4.28451C8.02093 3.84231 7.66245 3.48383 7.22024 3.48383C6.77804 3.48383 6.41956 3.84231 6.41956 4.28451C6.41956 4.72672 6.77804 5.0852 7.22024 5.0852Z" fill="#464646"/>
<path d="M9.95682 5.0852C10.399 5.0852 10.7575 4.72672 10.7575 4.28451C10.7575 3.84231 10.399 3.48383 9.95682 3.48383C9.51461 3.48383 9.15613 3.84231 9.15613 4.28451C9.15613 4.72672 9.51461 5.0852 9.95682 5.0852Z" fill="#464646"/>
<path d="M12.6935 5.0852C13.1357 5.0852 13.4942 4.72672 13.4942 4.28451C13.4942 3.84231 13.1357 3.48383 12.6935 3.48383C12.2513 3.48383 11.8928 3.84231 11.8928 4.28451C11.8928 4.72672 12.2513 5.0852 12.6935 5.0852Z" fill="#464646"/>
<path d="M15.4302 5.0852C15.8724 5.0852 16.2309 4.72672 16.2309 4.28451C16.2309 3.84231 15.8724 3.48383 15.4302 3.48383C14.988 3.48383 14.6295 3.84231 14.6295 4.28451C14.6295 4.72672 14.988 5.0852 15.4302 5.0852Z" fill="#464646"/>
</svg>
