<svg width="20" height="20" viewBox="0 0 20 20" fill="none" xmlns="http://www.w3.org/2000/svg">
<path d="M9.99997 1.66663C7.02497 1.66663 4.3583 2.94996 2.5083 4.99996L9.99997 18.3333L17.4916 4.99996C15.65 2.95829 12.975 1.66663 9.99997 1.66663ZM9.99997 14.9333L4.59163 5.29996C6.09997 4.04163 8.01663 3.33329 9.99997 3.33329C11.9833 3.33329 13.9 4.04163 15.4083 5.29996L9.99997 14.9333ZM7.49997 4.58329C6.8083 4.58329 6.24997 5.14163 6.24997 5.83329C6.24997 6.52496 6.8083 7.08329 7.49997 7.08329C8.19163 7.08329 8.74997 6.52496 8.74997 5.83329C8.74997 5.14163 8.1833 4.58329 7.49997 4.58329ZM8.74997 10.8333C8.74997 11.525 9.3083 12.0833 9.99997 12.0833C10.6833 12.0833 11.25 11.525 11.25 10.8333C11.25 10.1416 10.6833 9.58329 9.99997 9.58329C9.31663 9.58329 8.74997 10.1416 8.74997 10.8333Z" fill="#464646"/>
</svg>
