<svg width="20" height="20" viewBox="0 0 20 20" fill="none" xmlns="http://www.w3.org/2000/svg">
<path d="M10 1.66669C7.02503 1.66669 4.35836 2.95002 2.50836 5.00002L10 18.3334L17.4917 5.00002C15.65 2.95835 12.975 1.66669 10 1.66669ZM10 14.9334L4.5917 5.30002C6.10003 4.04169 8.0167 3.33335 10 3.33335C11.9834 3.33335 13.9 4.04169 15.4084 5.30002L10 14.9334ZM7.50003 4.58335C6.80836 4.58335 6.25003 5.14169 6.25003 5.83335C6.25003 6.52502 6.80836 7.08335 7.50003 7.08335C8.1917 7.08335 8.75003 6.52502 8.75003 5.83335C8.75003 5.14169 8.18336 4.58335 7.50003 4.58335ZM8.75003 10.8334C8.75003 11.525 9.30836 12.0834 10 12.0834C10.6834 12.0834 11.25 11.525 11.25 10.8334C11.25 10.1417 10.6834 9.58335 10 9.58335C9.3167 9.58335 8.75003 10.1417 8.75003 10.8334Z" fill="white"/>
</svg>
