<svg width="20" height="20" viewBox="0 0 20 20" fill="none" xmlns="http://www.w3.org/2000/svg">
<path d="M4.4375 16.3541C3.83203 15.7291 3.35774 15.0069 3.01465 14.1875C2.67155 13.368 2.5 12.5277 2.5 11.6666C2.5 10.6528 2.67708 9.72567 3.03125 8.88539C3.38542 8.04511 3.91667 7.27081 4.625 6.56247C5.11111 6.07636 5.71528 5.66664 6.4375 5.33331C7.15972 4.99997 8.01042 4.73956 8.98958 4.55206C9.96875 4.36456 11.0764 4.2465 12.3125 4.19789C13.5486 4.14928 14.9236 4.17358 16.4375 4.27081C16.5486 5.77081 16.5868 7.14233 16.5521 8.38539C16.5174 9.62844 16.4063 10.7448 16.2188 11.7343C16.0313 12.7239 15.7674 13.589 15.4271 14.3294C15.0868 15.0699 14.6667 15.6892 14.1667 16.1875C13.4583 16.8958 12.6944 17.4305 11.875 17.7916C11.0556 18.1528 10.1806 18.3333 9.25 18.3333C8.29167 18.3333 7.41319 18.1701 6.61458 17.8437C5.81597 17.5173 5.09028 17.0208 4.4375 16.3541ZM6.58333 16.3541C6.93056 16.5903 7.33333 16.7708 7.79167 16.8958C8.25 17.0208 8.73558 17.0833 9.2484 17.0833C9.98558 17.0833 10.7014 16.9305 11.3958 16.625C12.0903 16.3194 12.7222 15.875 13.2917 15.2916C13.6667 14.9166 13.9861 14.4271 14.25 13.8229C14.5139 13.2187 14.7292 12.5034 14.8958 11.6771C15.0625 10.8507 15.1736 9.91664 15.2292 8.87497C15.2847 7.83331 15.2847 6.68747 15.2292 5.43747C13.9236 5.4097 12.7535 5.42706 11.7188 5.48956C10.684 5.55206 9.77083 5.66664 8.97917 5.83331C8.1875 5.99997 7.50694 6.21178 6.9375 6.46872C6.36806 6.72567 5.90278 7.04164 5.54167 7.41664C4.95833 8.01386 4.51389 8.64581 4.20833 9.31247C3.90278 9.97914 3.75 10.6597 3.75 11.3541C3.75 12.0208 3.89236 12.7187 4.17708 13.4479C4.46181 14.1771 4.8125 14.7639 5.22917 15.2083C5.96528 13.8472 6.84722 12.625 7.875 11.5416C8.90278 10.4583 9.99306 9.60414 11.1458 8.97914C9.9375 10.0208 8.95833 11.1493 8.20833 12.3646C7.45833 13.5798 6.91667 14.9097 6.58333 16.3541Z" fill="white"/>
</svg>
