<svg width="20" height="20" viewBox="0 0 20 20" fill="none" xmlns="http://www.w3.org/2000/svg">
<path d="M7.08333 15.4167L7.15904 15.5822C7.92593 17.1568 9.69675 17.9925 11.4118 17.5637L11.6667 17.5L11.6622 17.363C11.5917 16.2763 10.6879 15.4167 9.58333 15.4167C10.7339 15.4167 11.6667 14.4839 11.6667 13.3333L11.4118 13.2696C9.63761 12.8261 7.80374 13.7357 7.08333 15.4167ZM7.08333 15.4167L6.59359 12.7231C6.40171 11.6677 7.0779 10.6494 8.125 10.4167C9.37295 10.1393 10.5964 9.76144 11.7834 9.28665L12.0833 9.16667C13.3416 8.66336 14.1667 7.4447 14.1667 6.08951V5.83333M7.08333 15.4167L5.87939 14.9007C4.77351 14.4267 3.87141 13.5761 3.33333 12.5L3.2683 12.3699C2.77252 11.3784 2.64779 10.2422 2.91667 9.16667C3.17964 8.11478 3.91242 7.24263 4.90323 6.80227L5.20833 6.66667C6.44457 6.11723 7.78235 5.83333 9.13518 5.83333H11.6667M14.1667 5.83333C15.0871 5.83333 15.8333 5.08714 15.8333 4.16667V3.33333M14.1667 5.83333H11.6667M11.6667 5.83333H15.8333C16.7538 5.83333 17.5 5.08714 17.5 4.16667V2.5M2.79139 10.6454L2.88334 10.7929C3.54563 11.805 4.71258 12.4138 5.96343 12.3356L6.56218 12.2978M3.30776 8.21822L4.81442 9.55726L4.97687 9.69366C5.80543 10.3504 6.87331 10.6277 7.91672 10.4568M5.99592 6.35715L8.33971 8.49064L8.48805 8.61832C9.44568 9.39815 10.7392 9.63021 11.9085 9.2314L11.7635 9.2766" stroke="#464646" stroke-width="1.2" stroke-linecap="round"/>
<path d="M10.8334 7.5H10.75" stroke="#464646" stroke-width="1.2" stroke-linecap="round"/>
</svg>
