<svg width="20" height="20" viewBox="0 0 20 20" fill="none" xmlns="http://www.w3.org/2000/svg">
<path d="M14.6917 12.6084L16.25 2.50002H12.9167V1.66669H9.58333V2.50002H5.41667C4.5 2.50002 3.75 3.25002 3.75 4.16669V7.50002C3.75 8.41669 4.5 9.16669 5.41667 9.16669H7.275L7.80833 12.6084C6.86667 13.375 6.25 14.525 6.25 15.8334V16.6667C6.25 17.5834 7 18.3334 7.91667 18.3334H14.5833C15.5 18.3334 16.25 17.5834 16.25 16.6667V15.8334C16.25 14.525 15.6333 13.375 14.6917 12.6084ZM5.41667 7.50002V4.16669H6.50833L7.025 7.50002H5.41667ZM14.3083 4.16669L13.1583 11.6667H9.35L8.19167 4.16669H14.3083ZM14.5833 16.6667H7.91667V15.8334C7.91667 14.4584 9.04167 13.3334 10.4167 13.3334H12.0833C13.4583 13.3334 14.5833 14.4584 14.5833 15.8334V16.6667Z" fill="#464646"/>
<path d="M11.25 15.8334C11.7102 15.8334 12.0833 15.4603 12.0833 15C12.0833 14.5398 11.7102 14.1667 11.25 14.1667C10.7898 14.1667 10.4167 14.5398 10.4167 15C10.4167 15.4603 10.7898 15.8334 11.25 15.8334Z" fill="#464646"/>
</svg>
