<svg width="20" height="20" viewBox="0 0 20 20" fill="none" xmlns="http://www.w3.org/2000/svg">
<path d="M5.08362 5.83335C4.80028 6.29169 4.75028 6.64169 4.75028 6.98335C4.75028 7.62502 5.58362 9.16669 5.58362 10C5.58362 10.7917 5.25028 11.25 5.25028 11.25H4.00028C4.00028 11.25 4.33362 10.7917 4.33362 10C4.33362 9.16669 3.50028 7.62502 3.50028 6.98335C3.50028 6.64169 3.55028 6.29169 3.83362 5.83335H5.08362ZM9.25028 5.83335C8.96695 6.29169 8.91695 6.64169 8.91695 6.98335C8.91695 7.62502 9.75028 9.16669 9.75028 10C9.75028 10.7917 9.41695 11.25 9.41695 11.25H10.6669C10.6669 11.25 11.0003 10.7917 11.0003 10C11.0003 9.16669 10.1669 7.62502 10.1669 6.98335C10.1669 6.64169 10.2169 6.29169 10.5003 5.83335H9.25028ZM6.54195 5.83335C6.25862 6.29169 6.20862 6.64169 6.20862 6.98335C6.20862 7.62502 7.04195 9.17502 7.04195 10C7.04195 10.7917 6.70862 11.25 6.70862 11.25H7.95862C7.95862 11.25 8.29195 10.7917 8.29195 10C8.29195 9.16669 7.45862 7.62502 7.45862 6.98335C7.45862 6.64169 7.50862 6.29169 7.79195 5.83335H6.54195ZM15.2503 1.66669C13.9669 1.66669 12.9086 2.63335 12.7669 3.87502L11.8586 12.5H3.09195C2.59195 12.5 2.18362 12.9417 2.25862 13.4417C2.69195 16.2167 5.07528 18.3334 7.87528 18.3334C10.7753 18.3334 13.1586 16.0584 13.4669 13.1417L14.4253 4.08335C14.4669 3.65835 14.8169 3.33335 15.2503 3.33335C15.7086 3.33335 16.0836 3.70835 16.0836 4.16669C16.0836 4.41669 16.0003 5.20835 16.0003 5.20835L17.6419 5.41669C17.6419 5.41669 17.7503 4.53335 17.7503 4.16669C17.7503 2.79169 16.6253 1.66669 15.2503 1.66669ZM7.87528 16.6667C6.25862 16.6667 4.81695 15.6417 4.18362 14.1667H11.5086C10.9086 15.65 9.49195 16.6667 7.87528 16.6667Z" fill="white"/>
</svg>
