<svg width="20" height="20" viewBox="0 0 20 20" fill="none" xmlns="http://www.w3.org/2000/svg">
<path d="M5.08368 5.83329C4.80034 6.29163 4.75034 6.64163 4.75034 6.98329C4.75034 7.62496 5.58368 9.16663 5.58368 9.99996C5.58368 10.7916 5.25034 11.25 5.25034 11.25H4.00034C4.00034 11.25 4.33368 10.7916 4.33368 9.99996C4.33368 9.16663 3.50034 7.62496 3.50034 6.98329C3.50034 6.64163 3.55034 6.29163 3.83368 5.83329H5.08368ZM9.25034 5.83329C8.96701 6.29163 8.91701 6.64163 8.91701 6.98329C8.91701 7.62496 9.75034 9.16663 9.75034 9.99996C9.75034 10.7916 9.41701 11.25 9.41701 11.25H10.667C10.667 11.25 11.0003 10.7916 11.0003 9.99996C11.0003 9.16663 10.167 7.62496 10.167 6.98329C10.167 6.64163 10.217 6.29163 10.5003 5.83329H9.25034ZM6.54201 5.83329C6.25868 6.29163 6.20868 6.64163 6.20868 6.98329C6.20868 7.62496 7.04201 9.17496 7.04201 9.99996C7.04201 10.7916 6.70868 11.25 6.70868 11.25H7.95868C7.95868 11.25 8.29201 10.7916 8.29201 9.99996C8.29201 9.16663 7.45868 7.62496 7.45868 6.98329C7.45868 6.64163 7.50868 6.29163 7.79201 5.83329H6.54201ZM15.2503 1.66663C13.967 1.66663 12.9087 2.63329 12.767 3.87496L11.8587 12.5H3.09201C2.59201 12.5 2.18368 12.9416 2.25868 13.4416C2.69201 16.2166 5.07534 18.3333 7.87534 18.3333C10.7753 18.3333 13.1587 16.0583 13.467 13.1416L14.4253 4.08329C14.467 3.65829 14.817 3.33329 15.2503 3.33329C15.7087 3.33329 16.0837 3.70829 16.0837 4.16663C16.0837 4.41663 16.0003 5.20829 16.0003 5.20829L17.642 5.41663C17.642 5.41663 17.7503 4.53329 17.7503 4.16663C17.7503 2.79163 16.6253 1.66663 15.2503 1.66663ZM7.87534 16.6666C6.25868 16.6666 4.81701 15.6416 4.18368 14.1666H11.5087C10.9087 15.65 9.49201 16.6666 7.87534 16.6666Z" fill="#464646"/>
</svg>
