<svg width="20" height="20" viewBox="0 0 20 20" fill="none" xmlns="http://www.w3.org/2000/svg">
<path d="M9.375 17.2917V10.8542H8.95833C8.06944 10.8542 7.23264 10.684 6.44792 10.3438C5.66319 10.0035 4.96528 9.52083 4.35417 8.89583C3.74306 8.27083 3.28125 7.54861 2.96875 6.72917C2.65625 5.90972 2.5 5.05556 2.5 4.16667V2.5H4.13171C4.98835 2.5 5.8125 2.67014 6.60417 3.01042C7.39583 3.35069 8.10417 3.83333 8.72917 4.45833C9.1875 4.93056 9.56597 5.45833 9.86458 6.04167C10.1632 6.625 10.375 7.24306 10.5 7.89583C10.6062 7.73056 10.723 7.57118 10.8505 7.41771C10.9779 7.26424 11.1111 7.11111 11.25 6.95833C11.875 6.33333 12.5833 5.85069 13.375 5.51042C14.1667 5.17014 14.9977 5 15.8681 5H17.5V6.66667C17.5 7.55556 17.3335 8.40972 17.0004 9.22917C16.6674 10.0486 16.195 10.7708 15.5833 11.3958C14.9583 12.0208 14.253 12.5 13.4675 12.8333C12.6819 13.1667 11.8594 13.3333 11 13.3333H10.625V17.2917H9.375ZM9.39583 9.58333C9.39583 8.73611 9.25694 7.94792 8.97917 7.21875C8.70139 6.48958 8.31944 5.87153 7.83333 5.36458C7.34722 4.85764 6.75 4.46181 6.04167 4.17708C5.33333 3.89236 4.56944 3.75 3.75 3.75C3.75 4.625 3.87847 5.42708 4.13542 6.15625C4.39236 6.88542 4.76389 7.50694 5.25 8.02083C5.83333 8.64583 6.46181 9.0625 7.13542 9.27083C7.80903 9.47917 8.5625 9.58333 9.39583 9.58333ZM10.625 12.0833C11.4583 12.0833 12.2292 11.9479 12.9375 11.6771C13.6458 11.4063 14.2431 11.0174 14.7292 10.5104C15.2153 10.0035 15.5903 9.38542 15.8542 8.65625C16.1181 7.92708 16.25 7.125 16.25 6.25C15.4167 6.25 14.6458 6.39236 13.9375 6.67708C13.2292 6.96181 12.6319 7.35417 12.1458 7.85417C11.5486 8.47917 11.1458 9.13194 10.9375 9.8125C10.7292 10.4931 10.625 11.25 10.625 12.0833Z" fill="white"/>
</svg>
