<svg width="20" height="20" viewBox="0 0 20 20" fill="none" xmlns="http://www.w3.org/2000/svg">
<path d="M17.8242 7.15462C17.7232 7.06349 17.1331 6.54353 16.4129 6.14778C16.5698 6.04018 16.7147 5.92175 16.8417 5.79481C17.703 4.93344 17.8296 2.94188 17.8412 2.7176C17.8574 2.4041 17.5993 2.14272 17.2822 2.1586C17.0579 2.17019 15.0663 2.29672 14.2049 3.1581C14.0775 3.2855 13.9592 3.43019 13.8516 3.586C13.4559 2.86631 12.9364 2.27672 12.8453 2.17572C12.6338 1.94122 12.2658 1.94163 12.0547 2.17572C11.934 2.3096 11.0607 3.30138 10.7208 4.31756C10.7181 4.3145 10.7148 4.31081 10.7126 4.30837C10.5012 4.07391 10.1331 4.07425 9.922 4.30837C9.80128 4.44225 8.92801 5.434 8.5881 6.45021C8.58542 6.44721 8.5821 6.44349 8.57992 6.44103C8.36847 6.20653 8.00044 6.20693 7.78934 6.44103C7.66862 6.5749 6.79536 7.56665 6.45545 8.58286C6.45276 8.57986 6.44945 8.57615 6.44726 8.57368C6.23582 8.33918 5.86778 8.33958 5.65669 8.57368C5.50631 8.74046 4.18751 10.2382 4.18751 11.4564C4.18751 12.3746 4.6587 13.4431 5.31059 13.9368L2.15582 17.0914C1.94798 17.2993 1.94798 17.6363 2.15582 17.8441C2.25976 17.948 2.39598 18 2.53214 18C2.6683 18 2.80458 17.9481 2.90849 17.8441L6.06316 14.6895C6.55692 15.3412 7.62534 15.8123 8.54341 15.8123C9.76159 15.8123 11.2594 14.4935 11.4261 14.3431C11.6606 14.1317 11.6602 13.7637 11.4261 13.5526C11.4237 13.5503 11.42 13.5471 11.417 13.5444C12.4332 13.2044 13.425 12.3312 13.5588 12.2105C13.7933 11.999 13.7929 11.631 13.5588 11.4199C13.5564 11.4177 13.5527 11.4144 13.5496 11.4117C14.5658 11.0718 15.5576 10.1985 15.6915 10.0778C15.926 9.86639 15.9256 9.49836 15.6915 9.28727C15.689 9.28508 15.6854 9.28177 15.6823 9.27908C16.6985 8.93921 17.6903 8.06593 17.8242 7.94521C18.0587 7.73374 18.0583 7.36571 17.8242 7.15462ZM14.9576 3.91078C15.2786 3.58975 16.0525 3.38603 16.7124 3.28725C16.6137 3.94731 16.4099 4.72106 16.0889 5.04212C15.7858 5.34525 15.3598 5.54978 14.987 5.64475C15.0234 5.47425 14.9757 5.28943 14.8432 5.15697C14.7104 5.02422 14.5251 4.97665 14.3543 5.01347C14.4561 4.61347 14.6755 4.19281 14.9576 3.91078ZM12.4503 3.37609C12.847 3.91172 13.2499 4.60244 13.2499 5.0584C13.2499 5.88671 12.6885 6.67271 12.4499 6.74871C12.1959 6.66774 11.6499 5.87143 11.6499 5.0584C11.65 4.60422 12.0534 3.91269 12.4503 3.37609ZM10.3176 5.50875C10.6206 5.91778 11.1172 6.6829 11.1172 7.19106C11.1172 8.02558 10.5532 8.80615 10.3172 8.88133C10.0635 8.80046 9.51724 8.00462 9.51724 7.19106C9.51727 6.73687 9.92071 6.04534 10.3176 5.50875ZM8.18497 7.64137C8.4881 8.05068 8.98455 8.81561 8.98455 9.32368C8.98455 10.1552 8.42166 10.9384 8.18457 11.014C7.93087 10.9331 7.38459 10.1372 7.38459 9.32368C7.38462 8.86955 7.78806 8.17799 8.18497 7.64137ZM6.05191 13.1466C5.79822 13.0657 5.25193 12.2699 5.25193 11.4563C5.25193 11.0022 5.65537 10.3106 6.05229 9.77402C6.35541 10.1833 6.85186 10.9483 6.85186 11.4563C6.85186 12.2896 6.28835 13.0712 6.05191 13.1466ZM8.54345 14.7478C7.73134 14.7478 6.93414 14.202 6.85311 13.9479C6.93258 13.6983 7.72622 13.1479 8.54345 13.1479C9.04948 13.1479 9.81437 13.6439 10.2258 13.9482C9.69012 14.3449 8.99945 14.7478 8.54345 14.7478ZM10.6761 12.6152C9.86403 12.6152 9.06683 12.0694 8.9858 11.8152C9.06161 11.5774 9.83721 11.0152 10.6761 11.0152C11.1822 11.0152 11.9469 11.5112 12.3579 11.8152C11.8213 12.2121 11.1301 12.6152 10.6761 12.6152ZM12.8088 10.4825C11.9967 10.4825 11.1995 9.93667 11.1185 9.68255C11.1942 9.44511 11.9775 8.88258 12.8088 8.88258C13.3149 8.88258 14.0796 9.37852 14.4912 9.68292C13.9555 10.0796 13.2648 10.4825 12.8088 10.4825ZM14.9415 8.34987C14.1294 8.34987 13.3321 7.80412 13.2512 7.5499C13.3263 7.31402 14.1026 6.74993 14.9415 6.74993C15.3957 6.74993 16.0872 7.15337 16.6238 7.55027C16.0882 7.94699 15.3974 8.34987 14.9415 8.34987Z" fill="white"/>
</svg>
