<svg width="20" height="20" viewBox="0 0 20 20" fill="none" xmlns="http://www.w3.org/2000/svg">
<path d="M17.8243 7.15462C17.7232 7.06349 17.1332 6.54353 16.413 6.14778C16.5699 6.04018 16.7147 5.92175 16.8417 5.79481C17.7031 4.93344 17.8297 2.94188 17.8413 2.7176C17.8575 2.4041 17.5994 2.14272 17.2822 2.1586C17.058 2.17019 15.0664 2.29672 14.205 3.1581C14.0776 3.2855 13.9592 3.43019 13.8516 3.586C13.4559 2.86631 12.9364 2.27672 12.8453 2.17572C12.6339 1.94122 12.2658 1.94163 12.0548 2.17572C11.934 2.3096 11.0608 3.30138 10.7208 4.31756C10.7181 4.3145 10.7148 4.31081 10.7126 4.30837C10.5012 4.07391 10.1332 4.07425 9.92206 4.30837C9.80134 4.44225 8.92807 5.434 8.58816 6.45021C8.58548 6.44721 8.58216 6.44349 8.57998 6.44103C8.36854 6.20653 8.0005 6.20693 7.7894 6.44103C7.66868 6.5749 6.79542 7.56665 6.45551 8.58286C6.45282 8.57986 6.44951 8.57615 6.44732 8.57368C6.23588 8.33918 5.86784 8.33958 5.65675 8.57368C5.50637 8.74046 4.18757 10.2382 4.18757 11.4564C4.18757 12.3746 4.65876 13.4431 5.31065 13.9368L2.15589 17.0914C1.94804 17.2993 1.94804 17.6363 2.15589 17.8441C2.25982 17.948 2.39604 18 2.5322 18C2.66836 18 2.80464 17.9481 2.90855 17.8441L6.06322 14.6895C6.55698 15.3412 7.6254 15.8123 8.54348 15.8123C9.76165 15.8123 11.2594 14.4935 11.4262 14.3431C11.6607 14.1317 11.6603 13.7637 11.4262 13.5526C11.4238 13.5503 11.4201 13.5471 11.417 13.5444C12.4332 13.2044 13.425 12.3312 13.5589 12.2105C13.7934 11.999 13.793 11.631 13.5589 11.4199C13.5565 11.4177 13.5528 11.4144 13.5497 11.4117C14.5659 11.0718 15.5577 10.1985 15.6915 10.0778C15.926 9.86639 15.9256 9.49836 15.6915 9.28727C15.6891 9.28508 15.6854 9.28177 15.6824 9.27908C16.6986 8.93921 17.6904 8.06593 17.8242 7.94521C18.0588 7.73374 18.0584 7.36571 17.8243 7.15462ZM14.9577 3.91078C15.2787 3.58975 16.0526 3.38603 16.7125 3.28725C16.6137 3.94731 16.41 4.72106 16.089 5.04212C15.7859 5.34525 15.3598 5.54978 14.987 5.64475C15.0234 5.47425 14.9757 5.28943 14.8433 5.15697C14.7105 5.02422 14.5252 4.97665 14.3544 5.01347C14.4561 4.61347 14.6756 4.19281 14.9577 3.91078ZM12.4504 3.37609C12.8471 3.91172 13.2499 4.60244 13.2499 5.0584C13.2499 5.88671 12.6885 6.67271 12.45 6.74871C12.1959 6.66774 11.65 5.87143 11.65 5.0584C11.6501 4.60422 12.0535 3.91269 12.4504 3.37609ZM10.3177 5.50875C10.6206 5.91778 11.1173 6.6829 11.1173 7.19106C11.1173 8.02558 10.5533 8.80615 10.3173 8.88133C10.0636 8.80046 9.5173 8.00462 9.5173 7.19106C9.51733 6.73687 9.92078 6.04534 10.3177 5.50875ZM8.18503 7.64137C8.48816 8.05068 8.98461 8.81561 8.98461 9.32368C8.98461 10.1552 8.42172 10.9384 8.18463 11.014C7.93094 10.9331 7.38465 10.1372 7.38465 9.32368C7.38468 8.86955 7.78812 8.17799 8.18503 7.64137ZM6.05197 13.1466C5.79828 13.0657 5.25199 12.2699 5.25199 11.4563C5.25199 11.0022 5.65543 10.3106 6.05235 9.77402C6.35548 10.1833 6.85192 10.9483 6.85192 11.4563C6.85192 12.2896 6.28841 13.0712 6.05197 13.1466ZM8.54351 14.7478C7.7314 14.7478 6.9342 14.202 6.85317 13.9479C6.93264 13.6983 7.72628 13.1479 8.54351 13.1479C9.04955 13.1479 9.81443 13.6439 10.2258 13.9482C9.69018 14.3449 8.99951 14.7478 8.54351 14.7478ZM10.6762 12.6152C9.86409 12.6152 9.06689 12.0694 8.98586 11.8152C9.06167 11.5774 9.83728 11.0152 10.6762 11.0152C11.1822 11.0152 11.947 11.5112 12.358 11.8152C11.8214 12.2121 11.1302 12.6152 10.6762 12.6152ZM12.8089 10.4825C11.9968 10.4825 11.1995 9.93667 11.1186 9.68255C11.1942 9.44511 11.9776 8.88258 12.8089 8.88258C13.3149 8.88258 14.0797 9.37852 14.4912 9.68292C13.9556 10.0796 13.2648 10.4825 12.8089 10.4825ZM14.9415 8.34987C14.1294 8.34987 13.3322 7.80412 13.2512 7.5499C13.3264 7.31402 14.1027 6.74993 14.9415 6.74993C15.3957 6.74993 16.0873 7.15337 16.6239 7.55027C16.0882 7.94699 15.3975 8.34987 14.9415 8.34987Z" fill="#464646"/>
</svg>
